<?xml version="1.0" standalone="no"?>
<!DOCTYPE svg PUBLIC "-//W3C//DTD SVG 20010904//EN"
 "http://www.w3.org/TR/2001/REC-SVG-20010904/DTD/svg10.dtd">
<svg version="1.0" xmlns="http://www.w3.org/2000/svg"
 width="805.000000pt" height="1263.000000pt" viewBox="0 0 805.000000 1263.000000"
 preserveAspectRatio="xMidYMid meet">

<g transform="translate(0.000000,1263.000000) scale(0.100000,-0.100000)"
fill="#000000" stroke="none">
<path d="M0 11165 c0 -806 3 -1465 8 -1466 4 -1 25 -3 47 -4 126 -11 248 -24
251 -28 10 -10 37 -498 28 -507 -5 -5 -82 -17 -172 -27 l-162 -17 0 -3866 c0
-2134 4 -3858 9 -3850 5 8 14 56 20 105 23 180 38 265 115 690 57 308 64 436
71 1195 2 234 8 461 14 505 5 44 8 134 6 200 -6 187 26 468 56 499 5 6 9 29 9
52 0 27 8 53 23 75 32 48 57 99 57 118 0 23 87 106 130 124 19 8 85 54 145
102 61 47 117 89 125 92 8 3 46 26 83 51 65 43 380 191 482 227 28 9 64 23 80
30 17 7 62 23 100 35 39 12 106 40 150 62 44 22 105 49 135 60 62 24 107 54
88 60 -7 3 -13 27 -14 59 -2 30 -5 70 -8 90 -3 20 -8 56 -11 80 -3 24 -8 91
-10 149 -3 58 -7 132 -10 165 -5 59 -13 187 -20 337 -2 43 -5 81 -8 85 -2 5
-5 44 -6 88 -1 44 -7 139 -13 210 -6 72 -12 186 -13 255 -3 165 -32 627 -41
641 -7 11 -22 148 -29 254 -2 39 -9 138 -14 220 -26 385 -27 403 -35 603 -3
68 -7 126 -10 130 -2 4 -7 73 -11 152 -3 80 -8 163 -11 185 -4 42 -9 126 -24
465 -5 113 -14 273 -19 355 -27 392 -32 515 -29 680 1 66 0 183 -2 260 -2 77
-4 200 -4 272 -1 82 -5 133 -11 133 -5 0 -5 4 2 8 9 5 9 19 2 51 -7 30 -6 47
1 56 8 10 7 14 -2 18 -10 4 -10 8 2 16 9 7 11 14 5 19 -6 4 -10 51 -10 107 1
55 -2 105 -6 110 -13 20 -19 65 -9 65 5 0 10 23 10 50 0 36 4 50 14 50 17 0 9
50 -10 57 -8 3 -14 10 -14 15 0 6 7 8 15 4 19 -7 19 3 0 28 -9 12 -11 24 -6
30 8 10 16 72 11 86 -8 22 -3 73 7 77 15 6 18 33 4 33 -6 0 -8 24 -5 58 3 31
6 76 7 100 l2 42 -782 0 -783 0 0 -1465z m1119 318 c-1 -4 3 -21 9 -36 7 -16
12 -39 12 -52 0 -13 6 -26 13 -29 9 -4 9 -7 0 -12 -8 -4 -8 -12 3 -32 17 -33
18 -69 2 -75 -10 -4 -10 -8 1 -15 12 -9 12 -13 -2 -27 -10 -9 -17 -21 -17 -26
0 -5 -7 -9 -15 -9 -8 0 -15 4 -15 10 0 5 -6 7 -14 4 -16 -6 -29 53 -14 62 5 3
6 19 3 34 -3 15 -8 56 -10 90 -4 55 -2 63 16 67 18 5 19 6 2 19 -13 9 -14 13
-4 14 10 0 12 9 7 33 -6 31 -6 31 9 10 8 -12 15 -26 14 -30z m14 -534 c-3 -10
0 -19 6 -19 6 0 11 -7 11 -15 0 -9 -6 -12 -17 -8 -11 4 -14 3 -9 -5 4 -7 14
-12 22 -12 8 0 14 -4 14 -10 0 -5 -6 -10 -12 -10 -8 0 -9 -3 -3 -8 6 -4 11
-28 12 -55 1 -26 9 -69 18 -96 9 -28 15 -56 14 -63 -2 -13 6 -41 21 -69 5 -10
4 -21 -3 -29 -9 -10 -9 -11 1 -6 15 9 16 -25 2 -74 -10 -35 -53 -76 -69 -66
-13 8 -25 99 -26 201 -1 50 -5 105 -9 124 -5 18 -4 31 0 28 10 -6 12 73 2 89
-4 5 -3 28 2 49 5 21 8 41 8 44 0 3 0 17 1 31 1 18 4 21 10 11 5 -7 6 -22 4
-32z m47 -731 l20 -22 0 22 c0 12 4 22 9 22 5 0 8 -12 6 -27 -1 -16 1 -30 6
-34 5 -3 11 -45 14 -95 3 -49 8 -102 11 -119 4 -16 8 -72 10 -122 4 -71 2 -93
-8 -93 -9 0 -8 -3 2 -10 8 -5 12 -10 8 -10 -5 0 -10 1 -12 3 -2 1 -13 -6 -24
-16 -16 -15 -24 -16 -41 -7 -12 6 -22 16 -22 23 -1 7 -3 23 -5 37 -6 53 -18
428 -15 463 2 14 20 7 41 -15z m-67 -178 c3 -11 1 -18 -4 -14 -5 3 -9 12 -9
20 0 20 7 17 13 -6z m-393 -230 c6 -12 10 -33 8 -48 -3 -26 -6 -27 -63 -30
-33 -1 -103 3 -155 10 -83 11 -95 15 -95 33 0 23 24 30 145 43 139 15 148 14
160 -8z m-121 -161 c64 -6 120 -15 125 -20 5 -4 11 -52 13 -106 3 -83 6 -101
23 -115 11 -9 16 -19 11 -22 -5 -3 -7 -38 -5 -78 2 -40 -2 -86 -8 -101 -9 -23
-8 -30 7 -41 16 -11 17 -18 7 -42 -6 -16 -12 -42 -14 -59 l-3 -30 -70 2 c-38
1 -93 4 -122 8 l-52 6 -6 47 c-5 32 -15 54 -30 67 -23 19 -25 33 -40 203 -8
101 -15 208 -15 238 l0 54 32 0 c18 0 84 -5 147 -11z m605 -74 c-4 -10 0 -15
16 -15 17 0 20 -4 15 -20 -5 -16 -2 -20 14 -20 16 0 21 -6 21 -24 0 -14 5 -28
10 -31 8 -5 7 -12 -2 -23 -10 -12 -10 -16 0 -19 6 -3 12 -14 12 -24 0 -11 -4
-18 -10 -14 -5 3 -3 -7 5 -22 10 -19 11 -31 3 -40 -6 -8 -7 -13 0 -13 5 0 10
-21 11 -47 5 -141 5 -175 0 -178 -3 -2 -4 -17 -3 -34 2 -33 -12 -43 -61 -44
-30 -1 -30 0 -36 64 -4 35 -9 89 -13 119 -19 172 -20 187 -15 308 2 39 6 52
16 48 10 -4 12 1 7 19 -4 15 -2 25 5 25 6 0 8 -7 5 -15z m-451 -635 c9 -8 27
-153 33 -260 11 -207 16 -288 17 -310 l2 -25 -115 3 c-63 2 -118 6 -122 10 -3
4 -14 104 -23 222 -9 118 -19 250 -23 293 -4 43 -6 79 -5 81 6 6 229 -7 236
-14z m494 -50 c-7 -25 16 -56 33 -45 10 6 12 4 7 -9 -4 -10 -1 -24 8 -32 10
-10 15 -35 15 -69 0 -30 5 -57 10 -60 7 -5 8 -11 1 -19 -6 -7 -6 -17 -1 -26 5
-8 7 -17 4 -21 -2 -4 0 -19 6 -33 5 -14 6 -26 1 -26 -5 0 -4 -17 1 -37 12 -43
13 -65 5 -109 -8 -50 -47 -99 -47 -61 0 8 -3 7 -10 -3 -28 -45 -56 82 -66 305
-3 72 -7 135 -9 142 -2 6 1 13 6 15 12 4 16 66 6 88 -5 11 -2 16 14 17 16 2
20 -3 16 -17z m-440 -643 c7 -7 33 -305 28 -327 -2 -14 -1 -70 4 -125 11 -136
10 -137 -92 -131 -45 2 -92 5 -104 5 -18 1 -23 9 -28 44 -6 48 -25 271 -31
367 -2 36 -6 87 -9 113 -3 26 -3 53 1 59 5 7 41 9 117 4 61 -4 112 -8 114 -9z
m483 -42 c-11 -13 -8 -15 14 -15 24 0 32 -12 27 -42 0 -5 5 -8 13 -8 18 0 27
-35 13 -49 -8 -8 -8 -11 0 -11 6 0 10 -11 8 -25 -1 -14 3 -25 8 -25 8 0 8 -3
0 -11 -7 -7 -8 -21 -2 -42 5 -17 10 -47 11 -66 1 -20 7 -39 12 -43 7 -5 8 -11
1 -15 -5 -5 -10 -37 -10 -71 0 -51 -4 -66 -17 -73 -10 -5 -18 -15 -18 -22 0
-8 4 -7 10 3 7 12 9 11 8 -6 -1 -12 -10 -21 -20 -21 -10 -1 -16 2 -13 8 4 5 2
9 -4 9 -5 0 -13 -5 -17 -12 -5 -7 -11 -3 -17 13 -12 28 -12 32 -22 159 -3 52
-9 98 -11 102 -3 4 0 17 6 28 7 13 7 20 0 20 -14 0 -13 158 1 199 6 17 16 31
21 31 6 0 5 -6 -2 -15z m-437 -668 c3 -18 6 -57 7 -87 0 -30 7 -98 15 -150 11
-74 12 -102 3 -127 -7 -18 -16 -33 -20 -33 -4 0 -8 -4 -8 -10 0 -5 7 -10 15
-10 10 0 16 -11 17 -35 1 -19 2 -42 2 -51 1 -13 -15 -17 -99 -20 -55 -2 -106
0 -112 4 -9 5 -16 63 -23 173 -6 90 -13 180 -15 199 -6 45 -12 179 -9 183 1 1
52 1 112 -1 l110 -3 5 -32z m531 -64 c11 -14 14 -23 8 -19 -16 10 -15 -4 3
-48 9 -20 13 -47 9 -60 -3 -15 1 -29 11 -40 10 -9 14 -24 11 -33 -4 -9 -1 -40
5 -70 10 -43 10 -58 -1 -77 -7 -14 -10 -32 -7 -41 5 -11 -1 -17 -23 -22 -16
-3 -27 -9 -24 -14 3 -5 -4 -9 -14 -9 -22 0 -29 30 -38 160 -3 41 -9 118 -13
170 -4 52 -5 103 -3 113 7 27 53 21 76 -10z m-492 -577 c15 -33 4 -55 -32 -68
-20 -7 -29 -15 -26 -24 3 -8 1 -14 -3 -14 -5 0 -11 6 -14 14 -7 17 -41 11 -58
-10 -6 -8 -27 -14 -45 -14 -29 0 -34 3 -34 24 0 13 -3 44 -6 70 l-7 46 107 0
c103 0 107 -1 118 -24z m553 -63 c4 -10 8 -44 10 -75 2 -31 6 -62 10 -68 3 -6
5 -25 4 -43 -2 -18 0 -37 3 -42 9 -15 7 -98 -3 -116 -4 -9 -4 -20 2 -26 16
-16 18 -133 1 -149 -10 -11 -11 -18 -3 -28 8 -9 8 -22 0 -47 -15 -44 -21 -50
-52 -53 -25 -3 -26 0 -31 58 -3 34 -9 93 -12 131 -4 39 -8 102 -10 140 -1 39
-6 129 -10 201 l-7 130 46 2 c35 2 46 -1 52 -15z m-585 -434 c0 -6 -4 -7 -10
-4 -5 3 -10 11 -10 16 0 6 5 7 10 4 6 -3 10 -11 10 -16z m-72 -251 c-8 -23
-35 -33 -53 -18 -16 14 -16 15 6 21 38 11 51 10 47 -3z"/>
<path d="M7703 12540 c0 -41 2 -58 4 -37 2 20 2 54 0 75 -2 20 -4 3 -4 -38z"/>
<path d="M1560 12379 c0 -5 5 -7 10 -4 6 3 10 8 10 11 0 2 -4 4 -10 4 -5 0
-10 -5 -10 -11z"/>
<path d="M7700 12372 c0 -6 5 -14 11 -17 6 -4 8 -14 5 -22 -3 -8 -1 -11 4 -8
15 9 12 31 -5 45 -9 8 -15 9 -15 2z"/>
<path d="M7701 12264 c0 -11 3 -14 6 -6 3 7 2 16 -1 19 -3 4 -6 -2 -5 -13z"/>
<path d="M1575 12210 c3 -5 8 -10 11 -10 2 0 4 5 4 10 0 6 -5 10 -11 10 -5 0
-7 -4 -4 -10z"/>
<path d="M4992 12131 c-9 -6 2 -16 40 -34 29 -15 64 -36 78 -47 l25 -20 -23 0
c-13 0 -38 7 -55 15 -18 8 -54 21 -82 29 -27 8 -68 21 -90 30 -55 21 -337 21
-455 0 -85 -15 -116 -20 -220 -30 -30 -3 -87 -12 -127 -20 -40 -8 -94 -14
-120 -14 -103 -1 -353 -54 -373 -80 -3 -3 -36 -16 -75 -29 -38 -12 -76 -28
-83 -34 -17 -14 -81 -37 -104 -37 -25 0 -187 -88 -250 -137 -61 -47 -83 -71
-54 -60 10 4 15 3 11 -3 -3 -6 -11 -10 -17 -10 -6 0 -30 -18 -54 -40 -24 -22
-53 -40 -64 -40 -11 0 -20 -4 -20 -9 0 -5 9 -7 20 -4 29 8 26 -21 -4 -37 -14
-7 -36 -10 -49 -6 -21 5 -24 3 -20 -14 4 -15 0 -20 -13 -20 -21 0 -82 -45 -74
-54 3 -3 19 6 34 19 34 29 46 33 23 7 -10 -10 -17 -24 -17 -30 0 -6 -9 -14
-20 -17 -36 -12 -76 -106 -57 -136 10 -16 5 -24 -31 -54 -23 -20 -42 -42 -42
-49 0 -6 -15 -29 -32 -51 -22 -26 -27 -37 -15 -32 15 6 16 4 6 -14 -6 -12 -8
-40 -5 -68 4 -25 6 -57 6 -71 0 -14 0 -50 1 -80 0 -31 -8 -92 -17 -135 -46
-219 -59 -480 -29 -607 8 -35 15 -98 17 -141 1 -43 6 -80 10 -83 4 -3 8 -23 8
-44 0 -22 4 -49 9 -62 5 -13 15 -77 22 -143 6 -66 17 -133 24 -150 7 -16 20
-57 30 -90 10 -33 22 -70 26 -83 9 -23 12 -62 5 -62 -1 0 -17 5 -35 11 -17 6
-38 8 -46 5 -16 -6 -9 -17 32 -61 7 -7 9 -15 6 -19 -4 -3 0 -6 8 -6 8 0 22
-17 31 -37 9 -21 17 -31 17 -22 2 33 52 33 78 0 11 -14 12 -14 13 2 0 25 27
21 34 -5 3 -13 6 -41 6 -64 0 -22 6 -48 13 -57 10 -15 13 -8 17 45 9 135 5
282 -10 328 -1 3 -2 26 -2 52 0 38 -3 46 -15 41 -13 -5 -15 0 -11 25 2 17 1
29 -4 26 -4 -3 -8 2 -8 10 0 9 5 16 10 16 6 0 10 7 10 16 0 8 -4 13 -9 10 -5
-4 -7 3 -4 15 3 11 12 23 19 26 8 3 11 9 8 15 -3 5 -13 4 -22 -4 -11 -8 -9 -3
4 12 30 38 75 126 66 134 -4 4 1 12 11 17 9 6 17 15 17 20 0 6 -4 7 -10 4 -6
-3 -7 1 -4 9 3 9 9 16 13 16 9 0 7 37 -2 46 -3 4 0 18 7 33 17 32 87 107 97
104 4 -2 6 6 4 17 -2 12 0 18 4 15 5 -2 15 3 22 12 12 15 12 16 -6 10 -16 -6
-15 -3 5 12 14 11 26 26 26 33 1 7 2 19 3 26 0 6 6 12 12 12 8 0 7 -6 -2 -17
-7 -10 -1 -7 13 7 15 14 29 39 32 55 8 49 18 75 27 75 5 0 9 -5 9 -11 0 -5 5
-7 10 -4 6 3 10 11 10 16 0 6 -4 7 -10 4 -5 -3 -10 0 -10 9 0 8 -5 17 -10 19
-6 3 -5 4 2 3 7 -1 19 4 27 12 12 12 12 15 0 23 -11 7 -10 9 6 10 11 1 26 1
33 0 15 -2 16 25 2 34 -7 4 -2 14 11 26 24 21 40 26 21 7 -14 -14 -16 -58 -2
-58 5 0 7 7 4 15 -7 18 51 79 69 72 9 -4 9 -6 0 -6 -7 -1 -13 -5 -13 -11 0
-16 40 -12 46 5 4 8 10 12 16 9 5 -3 4 -12 -4 -21 -12 -14 -9 -15 25 -9 l37 7
-5 -31 c-4 -23 -2 -31 7 -28 7 3 15 13 16 23 3 12 0 15 -9 10 -8 -5 -10 -4 -5
4 10 16 26 4 26 -20 0 -12 4 -17 11 -14 6 4 8 14 5 22 -4 8 -1 11 5 7 6 -3 8
-23 5 -48 l-6 -41 18 37 c14 29 21 34 33 27 11 -8 11 -12 2 -16 -14 -5 -18
-33 -5 -33 4 0 13 5 20 12 6 6 15 9 19 5 3 -4 -2 -14 -13 -22 -16 -13 -16 -14
-1 -9 11 4 17 1 17 -10 0 -19 36 -22 43 -3 3 8 10 6 21 -8 15 -19 15 -18 10
15 -6 34 -6 34 11 15 9 -11 14 -14 10 -7 -3 6 0 12 7 12 20 0 35 -13 41 -35 4
-16 5 -15 6 6 1 21 6 27 25 27 17 0 23 -5 19 -14 -3 -8 -11 -14 -19 -14 -19 0
-18 -26 2 -34 23 -9 31 -7 14 4 -12 7 -8 11 18 16 30 6 31 8 15 20 -16 13 -15
13 7 5 25 -9 35 -11 46 -11 4 0 2 -6 -4 -13 -8 -9 -4 -15 14 -24 13 -6 24 -7
24 -2 0 5 -5 9 -12 9 -9 0 -9 3 0 12 10 9 16 8 30 -5 14 -15 15 -19 3 -26 -11
-7 -10 -11 5 -20 16 -9 17 -12 4 -21 -12 -8 -11 -10 8 -10 19 0 21 3 13 18
-13 25 -9 109 6 109 7 0 10 -4 7 -9 -3 -4 0 -8 5 -8 6 0 11 5 11 11 0 7 10 9
28 5 21 -5 24 -4 12 4 -12 9 -10 10 10 8 17 -2 25 -9 24 -21 -2 -19 21 -23 31
-6 4 6 13 8 21 5 8 -3 14 -1 14 5 0 6 -8 9 -17 8 -10 -1 -25 -1 -33 0 -13 1
-13 2 0 11 12 8 12 10 -5 11 -11 0 -15 3 -8 5 7 3 21 1 32 -5 16 -9 21 -7 26
8 3 11 13 18 22 17 20 -3 30 -26 12 -26 -7 0 -10 -2 -7 -5 9 -9 68 26 79 46 8
16 13 18 25 8 18 -14 26 -9 14 10 -5 9 -14 11 -26 6 -33 -14 -47 -14 -68 1
-11 8 -16 14 -10 14 5 0 15 -5 22 -12 19 -19 50 15 33 36 -8 10 -9 16 -1 21 5
3 11 4 11 1 1 -3 3 -10 4 -16 1 -5 3 -14 4 -20 0 -5 12 -10 26 -10 14 0 25 -4
25 -10 0 -17 25 -11 38 10 7 11 17 20 23 20 5 0 3 -10 -5 -22 -19 -26 -20 -38
-5 -38 5 0 7 5 4 10 -3 6 -2 10 4 10 5 0 12 -6 15 -12 5 -10 7 -10 12 0 3 6
10 12 15 12 6 0 7 -5 4 -11 -10 -16 17 -99 33 -99 7 0 10 5 7 10 -3 6 3 10 14
10 12 0 21 -4 21 -10 0 -5 7 -7 15 -4 8 4 22 1 30 -6 12 -10 15 -10 15 0 0 7
8 10 20 7 11 -3 23 -1 26 4 3 5 -9 9 -25 9 -17 0 -30 3 -30 8 3 19 -2 23 -16
12 -12 -10 -15 -10 -15 4 0 9 -7 16 -15 16 -8 0 -15 4 -15 8 0 4 -12 9 -27 10
-31 2 -44 13 -25 19 10 4 10 8 1 19 -6 8 -10 14 -8 15 37 6 61 7 51 0 -11 -7
-10 -10 3 -15 24 -9 26 -8 23 12 -2 12 5 18 22 20 24 2 24 2 6 -13 -19 -15
-19 -15 2 -15 13 0 22 6 22 15 0 8 5 15 10 15 6 0 10 -4 10 -9 0 -5 16 -9 35
-8 31 1 33 2 20 17 -18 20 -20 39 -3 22 18 -18 38 -15 39 6 0 10 3 12 6 5 2
-7 9 -13 14 -13 6 0 8 4 4 9 -5 9 27 7 43 -2 4 -3 16 7 27 22 13 18 14 22 3
13 -10 -8 -18 -9 -22 -3 -4 6 10 13 31 16 67 12 80 10 86 -12 4 -14 5 -13 6 4
0 12 -5 23 -12 25 -9 2 -7 9 7 22 17 17 19 17 13 2 -4 -11 -3 -16 4 -14 6 2
10 7 9 11 -2 14 31 40 55 43 13 1 29 5 36 10 7 4 9 3 5 -4 -3 -6 -2 -13 4 -17
9 -6 15 8 11 29 -1 5 5 4 13 -4 9 -7 16 -9 16 -4 0 4 7 -1 15 -12 14 -18 14
-18 10 4 l-4 23 30 -21 c16 -12 27 -26 24 -31 -4 -5 -1 -9 6 -9 7 0 9 10 7 24
-4 18 -1 23 10 18 11 -4 13 -1 7 9 -6 10 -5 11 3 4 6 -6 13 -20 15 -32 2 -13
6 -26 10 -29 4 -4 7 -20 7 -36 0 -15 5 -28 10 -28 7 0 8 14 4 38 -6 33 -5 36
9 24 12 -10 17 -10 23 -1 5 9 11 7 21 -6 18 -25 17 -40 -2 -25 -12 10 -15 10
-15 -3 0 -8 5 -17 11 -19 9 -3 9 -9 0 -25 -6 -12 -11 -32 -11 -45 0 -18 -2
-20 -10 -8 -8 13 -10 12 -10 -2 0 -12 8 -18 23 -18 13 0 24 -6 24 -13 0 -9 -9
-12 -24 -9 -25 5 -30 -7 -11 -26 9 -9 8 -12 -5 -12 -9 0 -17 -7 -17 -16 0 -8
-4 -12 -10 -9 -6 3 -7 -1 -4 -9 3 -9 1 -16 -4 -16 -6 0 -12 6 -15 13 -2 7 -3
6 -3 -3 1 -8 15 -18 31 -21 18 -4 22 -7 10 -8 -36 -2 -66 11 -61 25 8 22 -14
28 -29 8 -19 -26 -18 -34 3 -28 14 5 15 4 2 -5 -8 -6 -24 -11 -34 -11 -17 0
-18 -2 -4 -17 8 -10 15 -29 16 -41 0 -13 9 -30 19 -38 22 -16 10 -18 -18 -3
-19 10 -19 9 -9 -10 6 -12 9 -21 6 -21 -3 0 -1 -13 4 -29 10 -35 3 -45 -19
-28 -14 10 -14 10 -5 -3 6 -8 10 -23 9 -33 -2 -10 3 -21 11 -24 9 -3 12 -15 8
-39 -3 -22 -1 -34 6 -34 7 0 9 -7 6 -16 -5 -14 -4 -15 9 -4 9 8 15 8 15 2 0
-6 -5 -14 -10 -17 -6 -4 -8 -11 -4 -16 3 -5 9 -7 14 -4 5 3 7 -4 5 -16 -3 -17
-2 -20 7 -11 9 9 16 4 30 -18 10 -17 26 -30 38 -30 12 0 20 -7 20 -17 0 -13 3
-14 12 -5 14 14 28 16 28 3 0 -5 -11 -12 -24 -15 -13 -3 -26 -13 -30 -21 -4
-11 -2 -14 7 -8 6 4 17 8 23 9 6 1 21 5 32 8 12 4 22 1 25 -8 4 -10 0 -12 -16
-9 -18 4 -19 3 -7 -6 13 -10 13 -12 0 -21 -8 -5 -10 -10 -5 -10 6 0 16 5 23
12 6 6 15 8 19 4 15 -15 -32 -37 -70 -34 -31 3 -37 1 -34 -12 3 -12 -5 -16
-35 -16 -23 0 -34 3 -26 7 7 5 22 6 33 3 15 -4 14 -1 -5 10 -14 8 -26 10 -28
5 -2 -5 -22 -9 -45 -9 -39 -1 -41 -2 -23 -15 23 -17 2 -21 -24 -5 -10 6 -21 3
-36 -11 -14 -13 -24 -17 -29 -10 -3 6 -24 11 -45 11 -22 0 -40 5 -43 13 -4 9
-7 9 -17 0 -11 -10 -9 -14 11 -22 23 -9 23 -10 -6 -10 -16 0 -41 -1 -55 -3
-14 -2 -28 1 -32 6 -4 6 -15 3 -27 -8 -12 -11 -21 -14 -21 -8 0 12 -40 3 -57
-14 -7 -6 -9 -14 -6 -18 4 -3 1 -6 -4 -6 -6 0 -14 6 -17 13 -3 6 -3 2 0 -10 4
-18 2 -22 -10 -17 -13 5 -15 2 -9 -12 6 -16 4 -17 -9 -6 -16 13 -48 7 -48 -9
0 -4 7 -6 15 -3 8 4 15 1 15 -5 0 -9 -9 -13 -30 -13 -3 0 -15 3 -27 6 -18 6
-21 3 -17 -16 3 -18 1 -16 -10 7 -12 24 -15 26 -16 10 0 -15 -2 -17 -9 -7 -4
8 -12 14 -17 14 -30 2 -48 25 -19 25 8 0 15 -4 15 -9 0 -5 5 -6 11 -2 7 4 7 9
2 13 -6 3 -12 12 -15 20 -5 16 -48 26 -48 11 0 -6 5 -10 11 -10 6 0 8 -8 5
-17 -6 -20 25 -63 46 -63 10 0 9 -3 -2 -10 -10 -6 -21 -3 -36 11 -17 16 -23
17 -27 7 -4 -10 -6 -10 -6 0 -1 6 -8 12 -17 12 -13 0 -13 -2 2 -17 16 -17 16
-18 -7 -24 -23 -7 -22 -7 5 -8 36 -1 29 -11 -10 -14 -28 -2 -44 -32 -17 -32 6
0 15 -3 19 -7 4 -5 2 -8 -5 -8 -7 0 -10 -4 -6 -9 3 -5 1 -12 -5 -16 -7 -4 -7
-13 0 -26 8 -14 8 -19 -1 -17 -6 2 -12 -7 -14 -19 -1 -17 1 -20 11 -12 9 7 15
5 23 -9 6 -11 7 -23 3 -27 -4 -5 -2 -5 5 -1 13 7 30 -36 25 -61 -2 -7 1 -13 7
-13 5 0 16 -12 23 -27 24 -47 43 -78 51 -84 5 -3 8 -10 8 -15 -2 -25 90 -233
131 -293 20 -31 20 -34 4 -28 -14 6 -17 4 -12 -9 3 -8 6 -19 6 -22 0 -4 5 0
10 8 8 13 14 10 34 -15 13 -16 24 -33 25 -38 0 -4 11 -28 25 -55 34 -68 40
-104 22 -145 -16 -40 -37 -53 -83 -52 -17 0 -30 -2 -27 -6 2 -4 -36 -8 -84
-11 -92 -4 -99 -7 -195 -79 -78 -58 -135 -52 -212 23 -42 42 -75 57 -138 64
-48 6 -59 3 -83 -15 -29 -23 -54 -21 -89 8 -19 15 -19 15 -5 -4 8 -11 23 -26
33 -33 9 -7 14 -18 11 -24 -4 -6 -1 -14 6 -18 10 -6 8 -16 -8 -44 -12 -20 -17
-38 -11 -41 5 -4 9 1 9 10 0 9 4 14 9 11 5 -4 12 0 15 6 2 7 4 -2 3 -21 -1
-22 3 -36 12 -39 9 -3 11 0 6 8 -6 9 -4 11 5 5 22 -14 -20 -37 -53 -29 -25 5
-28 3 -23 -12 3 -11 2 -25 -3 -33 -11 -17 -41 -24 -41 -10 0 5 8 9 18 10 11 0
12 2 4 6 -10 4 -10 8 0 21 7 10 1 7 -13 -6 -14 -12 -28 -20 -31 -17 -2 3 -5
-2 -5 -10 0 -8 4 -12 8 -9 4 2 11 -5 14 -17 4 -12 12 -18 21 -15 8 3 14 1 14
-4 0 -6 -6 -10 -14 -10 -18 0 -15 -31 4 -47 13 -11 13 -12 -2 -13 -9 0 -19 6
-21 13 -4 9 -6 9 -6 0 -1 -7 8 -17 19 -23 13 -7 20 -7 20 -1 0 6 16 13 35 17
21 4 35 12 35 21 0 12 3 12 16 -2 11 -10 20 -13 28 -6 12 10 41 9 52 -1 13
-14 -34 -46 -60 -41 -28 6 -36 -13 -14 -35 9 -9 7 -12 -11 -12 -12 0 -19 4
-16 10 4 6 -7 9 -28 8 -23 -2 -33 -7 -30 -15 8 -20 -62 -37 -104 -27 -33 9
-29 74 4 74 9 0 26 12 39 28 26 29 32 48 12 36 -9 -5 -9 -2 1 9 9 12 10 17 2
17 -7 0 -9 5 -6 10 3 6 1 10 -4 10 -6 0 -11 -7 -11 -16 0 -8 -5 -12 -11 -9 -5
4 -18 1 -28 -7 -9 -7 -6 -3 7 10 13 12 20 27 17 33 -5 7 -11 5 -18 -4 -7 -8
-20 -17 -31 -21 -14 -5 -17 -3 -12 11 6 14 4 14 -15 -3 -22 -19 -22 -19 -10 3
15 29 14 32 -9 26 -16 -4 -19 -2 -14 11 3 9 9 14 13 12 4 -3 8 5 8 17 2 21 1
21 -9 3 -8 -15 -12 -16 -20 -5 -8 11 -9 10 -4 -3 4 -15 -1 -18 -27 -17 -18 0
-27 3 -20 5 9 4 9 13 2 31 -5 13 -6 29 -3 35 3 5 -2 16 -12 24 -16 13 -16 15
-2 11 25 -8 30 4 11 26 -10 11 -13 17 -7 14 7 -4 18 1 25 10 10 12 11 17 2 20
-13 5 16 61 50 98 27 29 2 30 -29 1 -15 -14 -32 -22 -37 -19 -6 3 -7 1 -4 -5
11 -17 -4 -42 -24 -42 -10 0 -26 -11 -35 -25 -9 -14 -21 -22 -26 -19 -6 4 -8
1 -6 -7 3 -8 -4 -22 -16 -32 -17 -15 -18 -20 -6 -27 12 -8 12 -10 -3 -16 -9
-3 -24 -4 -32 0 -8 3 -15 1 -15 -4 0 -9 15 -14 33 -11 5 1 6 -3 2 -9 -3 -6
-11 -8 -16 -5 -5 4 -9 -1 -9 -10 0 -11 -5 -15 -15 -11 -8 3 -15 1 -15 -4 0 -6
10 -10 23 -11 12 0 16 -3 9 -6 -6 -2 -10 -9 -6 -14 3 -5 0 -9 -5 -9 -6 0 -11
-7 -11 -16 0 -11 5 -14 16 -10 9 3 18 6 20 6 3 0 2 6 -2 13 -6 9 -4 9 8 -1 11
-9 18 -10 23 -2 3 5 3 10 -1 10 -4 0 1 9 11 20 14 15 15 20 4 20 -9 1 -5 8 10
20 28 24 38 25 38 5 0 -8 -4 -15 -8 -15 -5 0 -6 -7 -3 -15 4 -9 0 -15 -10 -15
-8 0 -20 -9 -26 -20 -6 -11 -8 -20 -5 -20 11 0 47 36 55 56 10 25 40 28 40 4
0 -10 -7 -23 -15 -30 -12 -10 -13 -15 -3 -21 6 -4 17 -5 23 -1 16 10 36 11 29
1 -3 -5 -9 -7 -14 -4 -5 3 -11 1 -15 -4 -3 -6 -13 -7 -23 -4 -14 6 -15 4 -4
-9 9 -11 10 -18 2 -23 -6 -4 -9 -3 -8 2 2 4 -1 8 -7 8 -5 0 -10 -12 -10 -27 0
-35 -14 -48 -22 -20 -3 12 -9 19 -14 16 -20 -12 -7 16 16 34 13 11 21 23 17
27 -4 5 -1 5 7 0 10 -5 12 -4 7 4 -9 14 -23 6 -54 -31 -13 -15 -29 -25 -35
-22 -7 3 -1 -4 13 -17 17 -14 21 -23 13 -26 -7 -3 -13 -14 -13 -26 0 -16 3
-18 12 -9 19 19 25 14 20 -19 -3 -22 -1 -30 7 -25 6 4 9 11 7 15 -3 4 1 8 9 8
11 0 9 -7 -6 -28 -17 -24 -18 -35 -10 -64 7 -26 6 -35 -2 -35 -8 0 -7 -4 2 -9
8 -5 12 -18 8 -30 -3 -12 -2 -21 1 -21 11 0 42 -61 36 -71 -3 -5 2 -9 11 -9 9
0 13 -4 10 -10 -9 -15 25 -68 48 -74 14 -3 18 -10 13 -23 -6 -14 -5 -15 5 -6
10 10 9 16 -2 29 -10 13 -11 18 -2 21 7 2 9 11 6 19 -3 8 0 14 7 14 6 0 9 -4
6 -9 -3 -4 6 -19 19 -31 14 -13 25 -19 26 -14 1 5 5 -2 9 -16 8 -25 8 -25 9 4
l1 29 24 -26 c13 -14 31 -36 40 -49 19 -27 35 -15 17 14 -11 18 -11 23 3 33 8
7 13 15 9 18 -3 4 1 7 10 7 9 0 19 -5 22 -11 4 -6 13 -8 20 -5 7 2 27 -6 45
-19 18 -13 38 -21 46 -18 8 3 14 0 14 -7 0 -7 7 -10 15 -6 10 4 15 -1 15 -14
0 -24 41 -64 50 -50 5 7 11 6 18 -3 7 -8 23 -12 37 -9 15 2 25 0 25 -7 0 -6 6
-11 14 -11 8 0 24 -8 37 -19 22 -17 22 -19 6 -35 -9 -10 -17 -14 -17 -9 0 5
-8 9 -18 9 -10 0 -19 -6 -19 -13 0 -7 6 -13 14 -13 7 0 13 -5 13 -11 0 -5 -4
-7 -10 -4 -5 3 -10 -1 -10 -9 0 -19 -16 -21 -23 -3 -4 8 -6 6 -6 -4 -1 -18
-41 -58 -41 -41 0 6 4 12 9 14 20 7 15 31 -6 33 -27 2 -31 -11 -5 -18 9 -3 1
-5 -18 -6 -27 -1 -31 -4 -20 -11 26 -17 -17 -12 -51 6 -30 15 -31 15 -24 -5 5
-17 2 -21 -14 -21 -16 0 -21 -7 -22 -27 0 -25 -1 -26 -9 -8 -5 11 -9 16 -10
10 -7 -54 -7 -65 1 -65 5 0 9 8 10 18 0 13 3 12 11 -5 6 -13 16 -23 22 -23 6
0 5 5 -2 12 -18 18 -14 38 8 38 16 0 19 -5 14 -30 -8 -36 9 -40 41 -10 17 16
22 17 22 6 0 -8 -5 -12 -10 -9 -6 3 -7 1 -3 -5 4 -6 14 -8 23 -5 10 4 14 2 10
-4 -3 -5 0 -10 8 -10 13 0 13 3 -1 18 -14 16 -5 37 10 21 8 -7 13 -8 66 -11
27 -1 31 -4 20 -11 -21 -14 5 -13 31 0 16 9 19 7 19 -10 0 -12 7 -20 18 -21 9
0 25 -2 35 -4 10 -2 21 3 23 10 3 7 12 16 20 19 11 4 13 -1 8 -22 -5 -24 -4
-25 7 -8 12 19 12 19 25 1 13 -18 14 -18 14 3 0 26 27 30 33 5 3 -11 5 -7 6
10 1 19 6 27 19 27 13 0 14 -2 4 -9 -8 -5 -12 -17 -10 -27 3 -17 6 -16 29 9
30 31 39 34 39 12 0 -8 9 -15 20 -15 16 0 20 7 20 33 0 24 3 28 10 17 9 -13
10 -13 11 0 1 8 5 2 9 -15 7 -29 8 -29 15 -7 4 12 13 22 21 22 7 0 11 -6 9
-12 -4 -9 6 -13 30 -14 26 0 34 3 31 13 -3 7 -1 13 4 13 6 0 10 -9 10 -21 0
-19 1 -20 17 -3 17 16 18 16 23 -7 4 -16 8 -20 14 -11 4 7 12 10 17 7 5 -4 9
-1 9 4 0 6 -6 11 -12 11 -9 0 -8 3 2 9 20 14 32 3 20 -18 -5 -10 -6 -22 -2
-26 4 -5 2 -5 -5 -2 -15 9 -44 -3 -37 -14 7 -12 46 -1 56 15 5 7 8 4 8 -7 0
-23 -40 -77 -57 -77 -7 0 -13 -4 -13 -9 0 -5 -14 -7 -31 -6 -22 2 -29 -1 -25
-11 3 -9 -1 -14 -12 -14 -15 0 -15 -2 -2 -10 8 -5 10 -10 4 -10 -5 0 -16 6
-23 13 -8 8 -11 8 -9 0 2 -6 -1 -10 -7 -10 -5 1 -9 6 -7 11 2 5 -4 4 -12 -3
-9 -7 -15 -16 -14 -19 3 -26 -3 -35 -14 -24 -14 14 -48 16 -48 3 0 -5 -7 -11
-15 -15 -13 -4 -14 -2 -5 14 10 18 9 19 -15 8 -22 -10 -28 -9 -43 7 -16 18
-16 18 1 6 11 -9 17 -10 17 -2 0 6 5 11 11 11 5 0 7 -6 3 -12 -4 -7 -3 -9 1
-5 16 14 14 36 -3 30 -10 -4 -13 -2 -8 5 3 6 2 13 -3 17 -6 3 -8 -3 -6 -15 3
-17 0 -19 -26 -15 -20 4 -28 2 -24 -5 3 -5 1 -10 -4 -10 -6 0 -11 7 -11 15 0
9 -6 12 -15 9 -8 -4 -15 -15 -15 -25 0 -13 -7 -19 -24 -19 -13 0 -26 -6 -28
-12 -3 -7 -13 -13 -24 -13 -10 0 -18 -5 -17 -10 1 -6 -8 -12 -20 -12 -16 -2
-18 0 -8 7 12 7 12 11 -2 25 -16 15 -17 15 -17 -5 0 -17 -2 -19 -14 -8 -8 7
-11 15 -7 18 3 3 12 13 20 23 11 14 11 17 -1 17 -8 0 -21 -11 -28 -25 -11 -20
-11 -27 1 -42 9 -11 10 -14 2 -9 -16 9 -16 1 -1 -24 16 -25 0 -40 -17 -16 -17
23 -42 15 -48 -16 l-4 -23 -2 23 c0 13 -5 20 -11 17 -6 -4 -18 -1 -27 7 -9 7
-14 8 -10 2 4 -7 0 -11 -9 -10 -16 1 -44 -42 -64 -98 -9 -25 -13 -28 -20 -16
-5 8 -10 22 -10 30 0 13 1 13 10 0 8 -13 10 -12 10 3 0 9 5 17 10 17 6 0 10 9
10 20 0 11 4 20 9 20 16 0 20 28 6 34 -10 3 -18 -5 -24 -27 -7 -25 -9 -27 -10
-9 -1 25 -21 31 -21 6 0 -11 -4 -14 -12 -8 -15 11 -35 10 -60 -1 -22 -9 -23
-19 -3 -39 8 -8 11 -17 6 -21 -5 -3 -13 4 -16 15 -5 16 -10 18 -19 11 -13 -11
-26 -5 -26 11 0 5 4 6 10 3 6 -4 7 1 3 11 -5 13 -3 15 7 9 9 -5 11 -4 6 4 -6
9 -11 9 -21 1 -8 -7 -19 -9 -24 -5 -7 4 -9 -1 -5 -12 4 -12 0 -10 -14 7 -15
18 -18 28 -10 38 6 7 8 16 4 20 -4 4 -16 -3 -25 -14 -17 -21 -18 -21 -42 -3
-13 10 -32 19 -41 19 -28 0 -142 71 -221 137 -32 26 -57 32 -38 9 10 -11 8
-17 -6 -26 -13 -8 -14 -13 -5 -16 7 -3 19 -13 28 -21 12 -13 13 -17 2 -24 -15
-10 -4 -24 34 -43 12 -7 22 -20 21 -30 -1 -14 4 -16 23 -12 22 6 24 4 24 -36
l1 -43 14 30 13 30 1 -26 c1 -14 12 -36 26 -49 32 -30 32 -38 0 -36 -15 0 -25
7 -25 16 0 9 -9 16 -20 16 -24 0 -26 -18 -5 -36 17 -14 20 -46 5 -55 -5 -3
-10 -22 -10 -41 0 -24 -4 -34 -16 -34 -9 0 -14 -6 -11 -12 2 -7 14 -12 25 -10
12 2 22 -2 22 -7 0 -6 -6 -11 -14 -11 -8 0 -17 -12 -21 -27 -3 -16 -14 -36
-22 -45 -14 -15 -14 -18 -2 -18 8 0 20 5 27 12 9 9 12 6 12 -15 0 -16 -7 -30
-16 -34 -13 -5 -13 -7 -2 -14 10 -7 10 -11 -3 -21 -20 -16 -32 -48 -19 -48 6
0 10 -7 10 -15 0 -22 -83 -11 -121 16 -16 11 -29 17 -29 12 -1 -30 -43 94 -48
142 -4 33 -11 59 -17 58 -15 -3 -18 -49 -5 -73 7 -13 7 -26 1 -38 -10 -20 -10
-22 55 -139 17 -30 46 -63 69 -78 22 -15 61 -44 87 -66 25 -21 86 -63 135 -93
48 -31 130 -81 181 -113 52 -32 135 -85 185 -119 51 -33 99 -63 107 -67 33
-16 88 -51 140 -90 54 -42 73 -57 140 -116 19 -17 45 -34 58 -37 12 -3 22 -11
22 -18 0 -6 5 -3 11 7 13 22 35 22 66 -3 14 -11 31 -20 38 -20 39 0 205 67
268 108 111 72 257 193 288 238 8 11 41 42 74 69 91 73 97 80 53 61 -21 -8
-38 -11 -38 -6 0 4 6 11 13 13 9 4 9 6 0 6 -8 1 -3 15 12 37 31 45 32 64 4 64
-17 0 -19 3 -10 14 9 11 9 15 0 18 -9 3 -8 12 3 33 8 17 13 38 11 47 -3 9 1
27 8 40 7 13 13 34 15 48 5 55 15 116 23 140 10 27 33 127 51 225 7 33 20 98
30 145 10 47 21 102 25 123 6 39 22 49 31 20 3 -10 10 -26 15 -35 5 -10 9 -29
9 -43 0 -15 4 -24 9 -21 4 3 9 85 10 182 1 97 4 188 8 202 4 19 3 23 -8 17 -7
-5 1 17 19 48 62 111 135 370 144 515 1 23 6 42 11 42 5 0 7 11 5 25 -3 13 0
27 6 30 8 3 7 7 -1 11 -7 3 -13 21 -13 40 0 20 4 33 9 30 5 -4 7 3 4 14 -3 11
-1 20 3 20 5 0 10 21 12 48 3 58 11 84 22 77 4 -3 6 5 2 17 -3 13 -1 19 5 15
8 -5 8 5 1 31 -14 54 -15 77 -1 75 7 -2 10 15 9 50 -1 29 1 66 5 82 l8 30 -1
-30 c-1 -54 4 -61 13 -20 15 65 31 226 33 343 1 59 8 65 26 23 6 -16 20 -38
31 -50 28 -29 59 -107 59 -145 0 -19 -8 -38 -20 -48 -24 -21 -34 -8 -25 32 6
26 -10 60 -28 60 -10 0 -27 -57 -31 -100 -2 -25 -7 -52 -11 -61 -3 -10 -2 -20
4 -24 7 -4 11 3 11 18 0 31 25 55 34 32 3 -8 3 -21 0 -29 -6 -17 15 -33 25
-19 3 6 21 18 39 27 42 22 122 132 144 199 9 29 17 78 17 110 1 42 5 57 15 57
16 0 25 -33 28 -100 1 -25 7 -50 13 -57 10 -9 21 14 49 103 l37 114 -11 125
c-6 69 -16 137 -22 150 -18 40 -53 32 -113 -24 -65 -61 -134 -99 -146 -79 -17
26 -6 72 32 128 20 31 56 167 62 236 2 28 7 56 11 62 3 6 6 28 6 49 0 21 2 57
6 80 4 28 1 59 -10 90 -19 57 -20 77 -3 67 6 -4 4 2 -6 14 -11 11 -16 26 -12
31 3 6 0 11 -7 11 -10 0 -9 3 2 9 8 6 18 7 22 5 11 -7 10 20 -2 32 -6 6 -5 19
4 36 11 20 11 28 3 31 -9 3 -9 8 1 18 17 18 15 29 -5 29 -13 0 -14 3 -5 12 7
7 12 19 12 27 0 14 -1 14 -10 1 -6 -9 -10 -10 -10 -3 0 21 12 43 21 37 5 -3 9
0 9 5 0 6 -7 11 -15 11 -8 0 -15 -4 -15 -10 0 -15 -30 -12 -36 4 -3 8 3 23 14
34 17 17 20 17 30 3 7 -12 8 -6 2 22 -4 20 -6 37 -4 37 3 0 0 9 -6 20 -9 16
-8 19 7 13 13 -5 15 -3 8 13 -5 10 -8 33 -7 49 5 104 10 156 16 162 3 3 -1 14
-10 24 -9 10 -14 25 -10 34 3 9 -1 26 -8 38 -8 12 -16 51 -17 87 -4 78 -24
110 -91 147 -45 25 -78 63 -42 49 14 -5 15 -4 5 8 -9 10 -9 16 -1 21 6 4 9 13
6 20 -3 8 -1 28 4 45 5 18 5 28 0 25 -8 -5 -5 123 3 185 7 52 -16 162 -46 226
-19 38 -44 100 -57 137 -12 38 -24 66 -26 64 -3 -2 2 -23 9 -46 8 -22 11 -39
7 -36 -18 11 -128 184 -145 227 -9 26 -25 53 -33 60 -13 11 -15 10 -10 -2 21
-53 21 -54 -6 -25 -15 17 -45 53 -66 82 -22 28 -54 61 -72 74 -18 13 -34 27
-36 31 -2 4 -14 3 -26 -2 -20 -7 -35 1 -102 56 -68 56 -164 114 -189 114 -4 0
-4 -7 -1 -16 4 -10 2 -14 -6 -11 -7 2 -12 10 -10 16 2 13 -27 15 -46 2z m143
-51 c17 -11 26 -20 22 -20 -11 0 -67 29 -67 35 0 10 16 4 45 -15z m-738 -360
c2 -9 16 -24 31 -33 42 -26 80 -58 60 -51 -12 4 -18 1 -18 -9 0 -14 -4 -14
-34 -2 -19 8 -37 11 -40 6 -10 -15 -57 1 -73 25 -8 13 -20 24 -25 24 -6 0 -23
11 -40 25 -35 29 -33 30 18 9 72 -31 109 -21 53 14 -12 8 -18 9 -14 3 3 -6 1
-11 -4 -11 -6 0 -11 5 -11 10 0 6 -12 22 -27 35 l-28 24 74 -26 c44 -16 76
-33 78 -43z m353 45 c19 -23 8 -25 -14 -4 -11 11 -15 19 -9 19 6 0 16 -7 23
-15z m-255 -20 c17 -13 24 -24 17 -25 -7 0 -25 11 -40 25 -35 32 -16 33 23 0z
m145 -42 c0 -14 -19 3 -34 30 l-18 32 26 -29 c14 -16 26 -31 26 -33z m-78 35
c9 -7 24 -26 34 -42 l18 -29 -22 14 c-12 8 -22 17 -22 22 0 4 -12 5 -27 2 -21
-4 -23 -3 -9 3 14 6 16 11 8 16 -14 8 -16 26 -4 26 5 0 15 -6 24 -12z m102
-14 c5 -14 4 -15 -9 -4 -17 14 -19 20 -6 20 5 0 12 -7 15 -16z m-205 -15 c13
-11 21 -22 18 -25 -7 -7 -45 17 -51 33 -7 18 5 15 33 -8z m-243 -40 c3 -5 16
-9 29 -9 22 0 100 -38 93 -46 -2 -2 -42 10 -88 26 -47 16 -86 30 -88 30 -2 0
-1 4 2 9 7 10 44 3 52 -10z m-64 -35 c16 -3 26 -10 23 -14 -3 -4 4 -10 16 -13
17 -5 18 -3 8 9 -6 8 -9 17 -7 20 3 3 15 -6 26 -20 11 -15 24 -26 28 -26 15
-1 59 -38 53 -45 -9 -9 -59 16 -53 26 3 5 -2 9 -10 9 -33 0 -24 -19 18 -40 24
-11 47 -28 50 -37 5 -13 4 -14 -9 -3 -13 11 -14 10 -10 -2 3 -9 18 -21 32 -27
24 -11 25 -11 14 6 -7 10 0 3 17 -15 17 -19 45 -47 64 -64 l33 -29 -36 25
c-20 14 -46 26 -58 26 -14 0 -20 4 -15 12 4 6 3 8 -4 4 -6 -3 -23 -1 -39 5
-18 8 -23 13 -14 17 8 3 -10 16 -45 33 -63 30 -90 37 -62 15 10 -7 14 -16 10
-20 -4 -5 0 -7 8 -6 25 4 44 0 37 -7 -4 -3 -2 -12 4 -19 9 -10 7 -15 -5 -20
-9 -3 -13 -11 -9 -17 3 -6 1 -7 -6 -3 -6 4 -9 12 -6 17 4 5 -7 12 -24 15 -17
4 -36 13 -43 22 -11 13 -10 15 5 9 43 -17 53 -19 33 -6 -11 7 -31 13 -44 15
-24 2 -23 1 9 -32 l34 -35 -34 17 c-18 9 -36 25 -38 34 -3 10 -14 20 -24 23
-17 4 -18 3 -8 -9 9 -11 8 -14 -2 -14 -8 0 0 -12 16 -26 l30 -25 -32 16 c-18
8 -34 15 -35 15 -14 -5 -36 15 -33 30 2 12 -1 17 -8 14 -7 -2 -28 11 -47 31
-31 32 -32 35 -13 35 12 0 24 -4 28 -10 9 -14 53 10 51 28 -2 9 -8 18 -13 19
-6 2 -9 13 -6 24 5 19 6 19 26 2 11 -10 17 -13 14 -6 -4 6 -3 14 3 18 5 3 10
3 10 -2 0 -4 11 -9 25 -9 22 -2 24 0 13 13 -11 14 -10 15 7 10 11 -3 32 -9 47
-13z m357 -37 c0 -9 -2 -8 -6 1 -2 6 -10 9 -15 6 -7 -4 -8 -2 -4 5 9 13 26 5
25 -12z m-113 -18 c3 -6 -5 -3 -20 6 -14 10 -26 19 -26 22 0 7 39 -17 46 -28z
m-641 1 c10 -11 16 -20 13 -20 -3 0 -13 9 -23 20 -10 11 -16 20 -13 20 3 0 13
-9 23 -20z m250 -11 c4 -5 -2 -6 -11 -2 -13 5 -15 3 -9 -8 8 -12 6 -12 -8 0
-21 17 -21 16 3 18 11 1 22 -2 25 -8z m-270 -9 c3 -6 -1 -7 -9 -4 -18 7 -21
14 -7 14 6 0 13 -4 16 -10z m108 -23 c2 5 2 3 1 -4 -4 -15 1 -18 41 -27 29 -7
29 -7 11 13 -11 12 -14 21 -8 21 6 0 14 -5 17 -10 4 -6 10 -8 14 -5 5 2 21 -7
37 -20 16 -14 35 -25 42 -25 7 0 10 -5 7 -10 -4 -7 -19 -3 -41 10 -25 16 -38
19 -51 11 -14 -8 -15 -11 -3 -12 8 -1 20 -1 26 0 6 1 11 -9 10 -21 -1 -16 8
-27 29 -38 17 -8 40 -29 53 -48 l22 -33 -30 21 c-16 11 -32 25 -35 31 -4 5
-11 6 -17 3 -7 -4 -8 -2 -4 4 6 11 3 13 -19 12 -9 -1 -65 30 -65 36 0 2 9 0
20 -6 11 -6 20 -8 20 -6 0 3 -14 13 -30 21 -19 10 -28 20 -24 28 4 7 3 8 -1 4
-5 -4 -15 3 -22 15 -7 13 -12 17 -13 9 0 -8 10 -26 23 -39 l22 -25 -23 12
c-13 7 -26 19 -29 27 -3 7 -9 12 -13 9 -5 -3 -12 0 -16 6 -4 7 -3 9 3 6 6 -4
16 0 22 7 8 9 8 17 2 20 -5 3 -11 0 -14 -6 -2 -7 -4 0 -3 15 1 28 1 28 18 7 9
-11 18 -17 21 -13z m-136 -9 c10 -13 23 -23 28 -24 19 -1 61 -22 74 -38 8 -10
-5 -6 -35 10 -27 14 -50 26 -51 25 -10 -4 -25 0 -20 5 3 4 -4 15 -16 25 -12
10 -17 18 -10 19 6 0 20 -10 30 -22z m658 -16 c-3 -3 -11 0 -18 7 -9 10 -8 11
6 5 10 -3 15 -9 12 -12z m-348 -72 c6 0 15 -5 19 -12 5 -8 2 -9 -12 -4 -10 5
-28 9 -39 11 -31 4 -32 4 -32 19 0 11 4 11 26 0 14 -8 31 -14 38 -14z m-416 3
c13 -16 12 -17 -3 -4 -10 7 -18 15 -18 17 0 8 8 3 21 -13z m260 -10 c13 -16
12 -17 -3 -4 -10 7 -18 15 -18 17 0 8 8 3 21 -13z m1899 7 c0 -5 -4 -10 -10
-10 -5 0 -10 5 -10 10 0 6 5 10 10 10 6 0 10 -4 10 -10z m-1486 -19 c4 -5 -3
-7 -14 -4 -23 6 -26 13 -6 13 8 0 17 -4 20 -9z m-719 -29 c-3 -3 -11 0 -18 7
-9 10 -8 11 6 5 10 -3 15 -9 12 -12z m308 -2 c14 -11 30 -20 35 -20 5 0 16 -7
23 -17 12 -13 8 -13 -20 3 -79 45 -92 54 -74 54 6 0 22 -9 36 -20z m78 -7 c13
-17 13 -17 -6 -3 -11 8 -22 16 -24 17 -2 2 0 3 6 3 6 0 17 -8 24 -17z m-369
-44 c15 -16 22 -29 16 -29 -6 0 -9 -2 -6 -5 9 -9 38 7 32 17 -4 6 3 8 17 4 13
-3 18 -3 12 0 -12 5 -19 34 -9 34 15 0 35 -13 31 -20 -3 -5 4 -11 15 -15 11
-3 20 -13 20 -22 0 -8 -6 -13 -12 -10 -42 15 -57 14 -23 -3 l40 -19 -37 1
c-21 1 -35 4 -33 8 2 4 -10 7 -28 8 -28 0 -23 -4 38 -33 78 -37 82 -45 8 -16
-26 10 -54 16 -62 13 -9 -3 -11 0 -6 8 5 9 4 11 -3 6 -20 -12 -13 -24 18 -31
16 -4 32 -11 35 -16 4 -5 16 -9 28 -10 12 0 16 -3 10 -6 -21 -8 -15 -20 12
-27 14 -4 25 -10 25 -15 0 -4 -11 -6 -25 -3 -15 2 -25 0 -25 -7 0 -7 4 -10 10
-6 5 3 18 -3 29 -14 11 -11 22 -17 25 -15 3 2 4 1 1 -3 -3 -3 1 -13 8 -22 7
-9 2 -8 -15 4 -15 11 -28 23 -28 28 0 4 -10 7 -22 6 -15 0 -18 -3 -8 -6 8 -3
26 -17 40 -31 14 -14 18 -21 10 -16 -8 6 -28 11 -43 12 -15 1 -41 9 -58 17
-16 9 -35 13 -42 9 -7 -4 -9 -4 -5 1 10 10 -53 44 -69 38 -7 -3 -13 0 -13 7 0
6 -5 8 -10 5 -6 -4 -9 -2 -8 4 2 5 -6 17 -17 25 -33 25 1 18 41 -9 20 -14 40
-23 44 -20 4 3 13 -2 20 -10 7 -8 19 -15 26 -15 8 0 14 -4 14 -8 0 -4 15 -13
33 -20 29 -10 30 -10 13 3 -11 8 -24 15 -29 15 -4 0 -5 5 -2 10 4 6 3 10 -2 9
-36 -6 -46 17 -10 24 14 3 8 5 -15 6 -20 0 -40 6 -43 11 -4 6 -10 8 -15 5 -5
-3 -20 1 -32 9 -33 20 -72 31 -64 17 4 -6 2 -11 -4 -11 -18 0 28 -58 52 -66
12 -3 26 -11 32 -16 6 -5 20 -16 31 -24 11 -8 -5 -3 -35 13 -60 31 -80 46 -80
62 0 6 -6 8 -13 5 -8 -3 -20 2 -27 11 -8 10 -9 15 -1 15 6 0 11 -4 11 -10 0
-5 4 -10 9 -10 13 0 8 23 -12 53 -25 39 -20 46 8 12 14 -16 25 -24 25 -17 0 7
4 11 9 7 5 -3 12 -1 16 5 4 6 12 7 24 1 13 -7 18 -6 18 5 0 7 -4 14 -8 14 -5
0 -19 11 -33 25 -14 14 -21 25 -16 25 5 0 12 -5 15 -10 4 -6 19 -9 33 -8 15 1
33 -1 40 -6 7 -4 12 -2 12 3 0 10 -22 16 -43 12 -5 -1 -5 3 -2 9 4 6 14 9 22
6 8 -3 11 -2 8 4 -3 5 -21 7 -39 5 -24 -3 -40 1 -56 15 -27 24 -21 25 25 6 37
-16 46 -11 18 9 -13 10 -7 11 33 8 38 -4 55 -11 76 -34z m-437 -79 l39 -45
-44 41 c-25 23 -55 50 -68 60 -13 11 -28 28 -34 39 -14 26 53 -34 107 -95z
m252 104 c-3 -3 -12 -4 -19 -1 -8 3 -5 6 6 6 11 1 17 -2 13 -5z m228 -25 c-8
-12 -35 -11 -35 2 0 5 5 7 10 4 6 -3 10 -1 10 5 0 6 5 8 10 5 6 -4 8 -11 5
-16z m385 -44 c13 -14 21 -25 18 -25 -2 0 -15 11 -28 25 -13 14 -21 25 -18 25
2 0 15 -11 28 -25z m-567 -5 c4 -3 -6 -5 -23 -2 -17 2 -33 8 -36 14 -6 10 46
0 59 -12z m-353 -72 c0 -6 -7 -5 -15 2 -8 7 -15 17 -15 22 0 6 7 5 15 -2 8 -7
15 -17 15 -22z m210 -64 c0 -2 -9 0 -20 6 -11 6 -20 13 -20 16 0 2 9 0 20 -6
11 -6 20 -13 20 -16z m540 -8 c0 -2 -9 -6 -20 -9 -11 -3 -18 -1 -14 4 5 9 34
13 34 5z m-1184 -72 c-3 -9 -6 -18 -6 -20 0 -3 -4 -3 -10 1 -11 7 -2 35 12 35
6 0 7 -7 4 -16z m879 6 c3 -5 20 -14 38 -19 25 -7 27 -9 10 -10 -13 -1 -37 8
-55 19 -21 13 -27 20 -16 20 9 0 20 -4 23 -10z m275 -42 c0 -12 -6 -9 -26 13
-19 22 -19 22 4 8 12 -8 22 -17 22 -21z m547 -24 c-3 -3 -12 -4 -19 -1 -8 3
-5 6 6 6 11 1 17 -2 13 -5z m-392 -22 c-3 -3 -11 0 -18 7 -9 10 -8 11 6 5 10
-3 15 -9 12 -12z m1875 -27 c-7 -8 -17 -12 -23 -8 -6 4 -3 11 8 19 23 17 32
10 15 -11z m-1855 -53 c-6 -6 -65 38 -65 49 0 5 16 -3 35 -18 19 -15 32 -29
30 -31z m59 -38 c5 -14 4 -15 -9 -4 -17 14 -19 20 -6 20 5 0 12 -7 15 -16z
m150 -22 c3 -5 33 -17 68 -27 71 -21 104 -41 48 -30 -39 8 -140 51 -140 59 0
9 18 7 24 -2z m583 -288 c-3 -3 -12 -4 -19 -1 -8 3 -5 6 6 6 11 1 17 -2 13 -5z
m33 -14 c-8 -6 -22 -10 -30 -10 -8 0 -4 6 10 13 27 15 44 12 20 -3z m490 -15
c0 -8 -4 -15 -10 -15 -5 0 -7 7 -4 15 4 8 8 15 10 15 2 0 4 -7 4 -15z m670 -6
c0 -6 -4 -7 -10 -4 -5 3 -10 11 -10 16 0 6 5 7 10 4 6 -3 10 -11 10 -16z
m-1395 -51 c6 -4 2 -8 -7 -8 -10 0 -18 7 -18 17 0 9 3 12 8 7 4 -5 12 -12 17
-16z m700 -17 c-6 -5 -25 10 -25 20 0 5 6 4 14 -3 8 -7 12 -15 11 -17z m664
-11 c0 -10 -3 -8 -9 5 -12 27 -12 43 0 25 5 -8 9 -22 9 -30z m-2555 15 c-4 -8
-11 -12 -16 -9 -6 4 -5 10 3 15 19 12 19 11 13 -6z m1032 -7 c7 -11 -13 -28
-31 -28 -5 1 -1 7 9 15 19 15 19 15 -2 15 -12 0 -22 4 -22 9 0 11 38 2 46 -11z
m110 -5 c-10 -10 -19 5 -10 18 6 11 8 11 12 0 2 -7 1 -15 -2 -18z m-79 2 c0
-8 -4 -15 -9 -15 -4 0 -8 7 -8 15 0 8 4 15 8 15 5 0 9 -7 9 -15z m1550 -7 c-3
-8 -6 -5 -6 6 -1 11 2 17 5 13 3 -3 4 -12 1 -19z m-1422 2 c3 -6 -1 -7 -9 -4
-18 7 -21 14 -7 14 6 0 13 -4 16 -10z m662 4 c-3 -3 -12 -4 -19 -1 -8 3 -5 6
6 6 11 1 17 -2 13 -5z m3 -34 c0 -5 -9 -8 -19 -7 -10 0 -17 7 -14 13 5 13 33
8 33 -6z m747 -22 c-3 -7 -5 -2 -5 12 0 14 2 19 5 13 2 -7 2 -19 0 -25z m-620
0 c-3 -8 -6 -5 -6 6 -1 11 2 17 5 13 3 -3 4 -12 1 -19z m-1250 -24 c-3 -3 -12
-4 -19 -1 -8 3 -5 6 6 6 11 1 17 -2 13 -5z m88 -4 c-3 -5 -10 -10 -16 -10 -5
0 -9 5 -9 10 0 6 7 10 16 10 8 0 12 -4 9 -10z m-490 -30 c3 -5 -1 -10 -9 -10
-9 0 -16 5 -16 10 0 6 4 10 9 10 6 0 13 -4 16 -10z m105 0 c0 -5 -4 -10 -10
-10 -5 0 -10 5 -10 10 0 6 5 10 10 10 6 0 10 -4 10 -10z m217 4 c-3 -3 -12 -4
-19 -1 -8 3 -5 6 6 6 11 1 17 -2 13 -5z m-400 -26 c-3 -8 -6 -5 -6 6 -1 11 2
17 5 13 3 -3 4 -12 1 -19z m228 12 c3 -5 1 -10 -4 -10 -6 0 -11 5 -11 10 0 6
2 10 4 10 3 0 8 -4 11 -10z m1336 -9 c-7 -5 -17 -15 -22 -22 -7 -11 -9 -9 -9
6 0 14 7 21 22 22 16 2 19 0 9 -6z m-1286 -11 c4 -6 11 -8 16 -5 5 4 9 -1 9
-9 0 -9 -4 -16 -10 -16 -5 0 -10 5 -10 10 0 6 -7 10 -15 10 -8 0 -15 5 -15 10
0 13 17 13 25 0z m1200 -61 c-4 -5 -1 -9 5 -9 7 0 6 -5 -2 -14 -14 -15 -32
-11 -23 5 4 5 -2 9 -12 9 -17 1 -17 1 1 15 20 15 41 11 31 -6z m-2381 -14 c3
-8 1 -15 -4 -15 -6 0 -10 7 -10 15 0 8 2 15 4 15 2 0 6 -7 10 -15z m3243 -47
c-3 -8 -6 -5 -6 6 -1 11 2 17 5 13 3 -3 4 -12 1 -19z m-56 -21 c-10 -9 -11 -8
-5 6 3 10 9 15 12 12 3 -3 0 -11 -7 -18z m26 -59 c-3 -8 -6 -5 -6 6 -1 11 2
17 5 13 3 -3 4 -12 1 -19z m27 -34 c5 -14 4 -15 -9 -4 -17 14 -19 20 -6 20 5
0 12 -7 15 -16z m-3133 -36 c11 -21 11 -22 -4 -9 -10 7 -17 17 -17 22 0 15 9
10 21 -13z m3130 -41 c-10 -9 -11 -8 -5 6 3 10 9 15 12 12 3 -3 0 -11 -7 -18z
m-797 -162 c3 -9 0 -12 -9 -9 -7 3 -16 12 -19 19 -3 9 0 12 9 9 7 -3 16 -12
19 -19z m836 -99 c-1 -21 -1 -21 -15 -2 -19 25 -19 37 0 30 8 -4 15 -16 15
-28z m-675 4 c3 -5 1 -10 -4 -10 -6 0 -11 5 -11 10 0 6 2 10 4 10 3 0 8 -4 11
-10z m-2505 -250 c0 -5 -5 -10 -11 -10 -5 0 -7 5 -4 10 3 6 8 10 11 10 2 0 4
-4 4 -10z m3220 -556 c0 -3 -7 -1 -15 6 -8 7 -15 17 -15 22 0 5 7 3 15 -6 8
-8 15 -18 15 -22z m-748 -31 c15 15 44 7 61 -17 5 -8 10 -6 17 4 8 13 10 13
10 -2 0 -23 37 -47 65 -42 17 3 29 -4 45 -26 12 -16 26 -29 33 -27 7 1 11 -7
9 -20 -2 -13 2 -23 7 -23 6 0 11 -8 11 -18 0 -10 7 -27 15 -38 8 -12 12 -24 8
-27 -3 -4 0 -13 7 -22 10 -12 10 -15 -3 -15 -18 0 -30 -27 -16 -35 14 -9 1
-25 -21 -25 -10 0 -22 -5 -26 -12 -4 -6 -3 -8 3 -5 6 4 16 1 22 -7 9 -10 7
-19 -9 -37 l-20 -24 6 30 6 30 -17 -23 c-9 -13 -14 -29 -11 -37 7 -18 -6 -19
-22 -3 -9 9 -12 9 -12 0 0 -7 -16 -12 -40 -12 -29 0 -40 -4 -40 -15 0 -18 11
-19 29 -2 11 10 13 9 9 -3 -5 -17 -58 -27 -58 -10 0 6 -10 3 -24 -7 -16 -12
-20 -20 -12 -25 7 -5 6 -8 -4 -8 -9 0 -22 6 -29 13 -11 10 -12 8 -6 -10 5 -18
3 -22 -9 -17 -12 5 -15 2 -10 -10 3 -9 10 -13 15 -10 5 3 6 -2 2 -11 -5 -15
-9 -14 -28 7 -12 13 -25 30 -29 38 -8 19 -1 -30 8 -50 5 -12 -4 -15 -51 -16
-32 0 -42 1 -21 3 20 2 39 10 41 18 5 10 -1 11 -29 3 -31 -8 -37 -6 -54 14
-13 17 -15 25 -7 31 8 6 6 7 -5 3 -10 -3 -28 -1 -40 3 -21 8 -21 10 -5 16 17
7 17 8 0 21 -10 7 -26 14 -35 14 -9 0 -19 8 -22 18 -6 18 -68 62 -87 62 -7 0
-9 9 -6 21 3 12 3 18 0 15 -3 -3 -12 1 -20 9 -8 8 -24 15 -36 15 -22 -1 -22
-1 -3 -15 17 -13 17 -15 4 -15 -9 0 -19 9 -23 19 -6 19 -20 22 -42 8 -18 -11
-16 4 4 32 9 14 12 21 6 18 -6 -4 -13 -1 -16 5 -4 10 -7 11 -18 1 -11 -11 -10
-13 5 -13 10 0 14 -5 10 -11 -4 -8 -9 -8 -17 0 -6 6 -19 11 -28 11 -26 0 -31
28 -7 41 15 8 17 13 8 19 -7 4 -10 17 -6 31 3 13 3 18 0 12 -8 -18 -27 -16
-20 2 3 9 0 15 -9 15 -16 0 -20 16 -6 24 5 3 11 0 14 -8 3 -8 13 -13 21 -12
21 3 33 16 15 16 -11 0 -11 2 1 10 12 8 9 10 -12 10 -16 0 -28 4 -28 10 0 5 7
7 15 3 13 -4 15 0 11 21 -5 30 10 35 19 6 3 -11 11 -20 16 -20 6 0 8 4 4 9 -3
5 1 16 9 24 8 8 14 16 13 18 -1 3 3 -1 9 -8 7 -9 14 -9 21 -2 8 8 13 7 18 -2
6 -8 4 -10 -5 -4 -9 5 -11 4 -6 -4 4 -6 13 -8 19 -4 19 12 57 15 57 4 0 -6 -7
-8 -15 -5 -8 4 -15 2 -15 -3 0 -17 114 -10 122 7 6 13 7 12 7 -1 1 -13 8 -16
36 -12 21 3 35 0 35 -6 0 -6 5 -11 12 -11 6 0 1 12 -13 26 l-24 26 25 -7 c14
-4 28 -13 32 -19 8 -12 11 -3 9 29 -2 17 0 17 8 5 7 -10 11 -11 11 -3 0 7 7
10 15 7 8 -4 15 -2 15 4 0 12 32 11 41 -2 4 -5 15 -5 25 -1 13 5 15 9 6 12 -6
3 -9 9 -6 15 4 5 13 3 24 -7 15 -14 19 -14 32 -2z m494 -20 c-10 -10 -19 5
-10 18 6 11 8 11 12 0 2 -7 1 -15 -2 -18z m-366 -3 c0 -5 -2 -10 -4 -10 -3 0
-8 5 -11 10 -3 6 -1 10 4 10 6 0 11 -4 11 -10z m716 -56 c-4 -9 -9 -15 -11
-12 -3 3 -3 13 1 22 4 9 9 15 11 12 3 -3 3 -13 -1 -22z m-1239 -270 c-3 -3
-12 -4 -19 -1 -8 3 -5 6 6 6 11 1 17 -2 13 -5z m-100 -74 c12 -13 12 -13 8 1
-5 13 0 15 25 11 35 -5 35 -5 14 -26 -14 -14 -14 -16 0 -16 10 0 13 -6 10 -15
-7 -18 7 -20 24 -3 8 8 12 9 12 1 0 -6 -6 -14 -12 -16 -10 -4 -10 -8 1 -15 17
-12 -51 -8 -71 4 -9 6 -9 3 1 -9 7 -9 10 -17 5 -17 -5 0 -2 -5 6 -11 11 -8 12
-12 3 -16 -17 -6 -17 -23 0 -23 8 0 14 -7 14 -15 0 -11 -4 -12 -11 -5 -5 5
-19 10 -30 11 -12 0 -15 3 -8 6 17 7 15 48 -3 63 -13 10 -15 9 -15 -9 0 -18
-2 -20 -14 -9 -8 7 -10 15 -5 16 5 2 9 8 9 14 0 6 -7 8 -15 4 -8 -3 -15 -3
-15 0 0 8 34 59 45 66 6 5 5 8 -2 8 -7 0 -13 5 -13 10 0 14 22 8 37 -10z m902
-27 c-1 -41 -2 -44 -8 -18 -7 28 -4 65 5 65 2 0 3 -21 3 -47z m-22 -85 c-3 -7
-5 -2 -5 12 0 14 2 19 5 13 2 -7 2 -19 0 -25z m-807 -2 c0 -11 -19 -15 -25 -6
-3 5 1 10 9 10 9 0 16 -2 16 -4z m-120 -63 c0 -16 2 -16 11 -3 7 10 12 11 15
4 3 -7 14 -10 24 -7 11 3 20 0 20 -6 0 -10 -30 -16 -54 -12 -5 1 -4 -5 3 -13
10 -12 18 -13 32 -5 15 7 19 6 19 -6 0 -8 9 -15 20 -15 11 0 20 -7 20 -15 0
-9 -6 -12 -15 -9 -11 5 -13 2 -9 -10 3 -9 10 -14 14 -11 5 3 16 -9 24 -26 20
-40 20 -44 1 -25 -8 8 -15 19 -15 25 0 6 -7 11 -15 11 -9 0 -20 11 -25 24 -11
31 -26 40 -34 20 -3 -8 -2 -13 3 -10 6 4 31 -34 31 -48 0 -10 -30 -14 -36 -4
-4 7 -3 8 4 4 17 -11 15 9 -3 24 -11 9 -15 9 -15 1 0 -7 -4 -9 -10 -6 -5 3
-11 1 -11 -4 -1 -6 -2 -15 -3 -20 0 -6 -6 -15 -12 -21 -6 -6 -10 -30 -9 -53 3
-41 2 -41 -5 -7 -7 34 -15 19 -12 -22 1 -14 -6 -18 -28 -18 -17 0 -30 5 -30
11 0 5 -4 8 -9 4 -19 -11 -19 12 -2 39 13 20 20 24 25 14 3 -7 4 8 1 34 -2 26
0 50 5 53 6 4 10 -10 10 -32 0 -26 3 -33 9 -24 5 7 13 11 19 7 12 -7 26 29 17
44 -3 5 -11 10 -17 10 -6 0 -6 -6 2 -15 14 -17 8 -31 -9 -20 -6 3 -11 30 -10
58 0 38 3 47 9 32 8 -18 10 -16 14 15 0 6 7 15 15 19 7 5 10 14 7 20 -4 6 -2
11 3 11 6 0 11 -8 11 -17z m107 -15 c-3 -8 -6 -5 -6 6 -1 11 2 17 5 13 3 -3 4
-12 1 -19z m-1299 -11 c-14 -9 -14 -12 6 -28 11 -10 15 -18 9 -19 -7 0 -13 4
-13 10 0 5 -6 7 -14 4 -10 -4 -13 0 -11 13 2 10 4 21 4 24 1 3 9 6 18 6 16 0
16 -1 1 -10z m366 -105 c2 -4 -4 -8 -14 -8 -10 0 -16 4 -14 8 3 4 9 8 14 8 5
0 11 -4 14 -8z m923 -9 c-4 -3 -2 -12 5 -20 8 -11 7 -12 -6 -7 -9 3 -16 9 -16
13 0 9 11 21 18 21 3 0 2 -3 -1 -7z m-47 -73 c0 -5 -5 -10 -11 -10 -5 0 -7 5
-4 10 3 6 8 10 11 10 2 0 4 -4 4 -10z m-1115 -10 c-3 -5 -12 -10 -18 -10 -7 0
-6 4 3 10 19 12 23 12 15 0z m83 -31 c-3 -8 -7 -3 -11 10 -4 17 -3 21 5 13 5
-5 8 -16 6 -23z m313 -168 l37 -40 12 30 c11 26 17 29 59 29 57 0 86 -19 96
-62 l7 -33 18 42 c15 34 25 43 52 48 88 15 105 11 118 -30 13 -38 25 -34 47
17 16 36 61 48 80 23 16 -23 17 -95 2 -129 -18 -38 -90 -50 -108 -18 -9 15
-10 15 -11 -6 0 -15 -9 -26 -26 -32 -33 -13 -151 -13 -159 0 -4 6 -13 4 -22
-6 -22 -21 -133 -16 -160 8 -12 10 -29 14 -50 11 -26 -4 -38 0 -61 24 -28 27
-30 28 -41 11 -26 -41 -65 -8 -87 73 -7 30 -14 57 -14 61 0 4 33 9 73 11 39 1
78 4 86 5 8 1 31 -16 52 -37z m649 -3 c0 -24 -5 -60 -11 -80 -8 -32 -14 -38
-37 -38 -36 0 -52 17 -52 54 0 33 36 93 60 100 36 9 40 6 40 -36z m50 10 c0
-19 -18 -44 -25 -36 -4 3 0 15 7 27 15 24 18 26 18 9z m-920 -18 c6 -11 8 -25
5 -30 -9 -14 -37 1 -31 17 3 8 1 11 -4 8 -6 -3 -10 1 -10 9 0 23 27 20 40 -4z
m-236 -185 c-9 -14 -19 -23 -22 -20 -5 4 26 45 35 45 2 0 -4 -11 -13 -25z
m912 -22 c7 -10 16 -14 20 -10 5 4 3 12 -4 16 -9 5 -2 8 17 9 17 0 31 -1 31
-2 0 -2 -14 -18 -31 -36 -23 -23 -34 -29 -39 -20 -5 9 -20 11 -43 7 -27 -4
-41 -1 -58 14 l-22 19 34 1 c19 0 43 4 54 9 28 12 26 12 41 -7z m-501 -13 c7
0 15 5 17 12 6 17 28 0 28 -23 0 -10 -7 -19 -15 -19 -8 0 -15 -4 -15 -10 0 -5
-4 -10 -10 -10 -5 0 -9 3 -9 8 3 20 -2 32 -16 32 -9 0 -12 6 -8 17 4 11 8 12
11 5 2 -7 10 -12 17 -12z m225 -22 c0 -10 -4 -17 -9 -14 -5 4 -12 0 -14 -6 -3
-7 -6 1 -6 19 -1 25 2 31 14 27 8 -4 15 -15 15 -26z m119 -17 c0 -10 -4 -7 -9
7 -5 12 -14 22 -20 22 -6 0 -8 5 -4 12 9 14 34 -18 33 -41z m-275 18 c-3 -5 0
-17 7 -25 10 -12 14 -12 22 -2 6 9 7 8 3 -4 -3 -10 -1 -18 5 -18 6 0 8 -4 5
-9 -4 -5 0 -12 6 -14 9 -4 9 -6 1 -6 -6 -1 -18 6 -27 14 -8 9 -22 12 -32 8
-12 -5 -15 -3 -9 6 4 8 2 17 -6 22 -10 6 -11 9 -1 9 6 0 12 9 12 21 0 11 5 17
10 14 6 -4 8 -11 4 -16z m86 0 c0 -4 -7 -6 -15 -3 -8 4 -15 10 -15 15 0 4 7 6
15 3 8 -4 15 -10 15 -15z m227 -11 c-3 -8 -6 -5 -6 6 -1 11 2 17 5 13 3 -3 4
-12 1 -19z m-140 -10 c-3 -8 -6 -5 -6 6 -1 11 2 17 5 13 3 -3 4 -12 1 -19z
m233 -8 c0 -5 -9 -10 -21 -10 -11 0 -17 5 -14 10 3 6 13 10 21 10 8 0 14 -4
14 -10z m-273 -16 c-3 -3 -12 -4 -19 -1 -8 3 -5 6 6 6 11 1 17 -2 13 -5z
m-137 -39 c0 -2 -6 -5 -13 -8 -8 -3 -14 1 -14 8 0 7 6 11 14 8 7 -3 13 -6 13
-8z m-50 -5 c0 -5 -4 -10 -9 -10 -6 0 -13 5 -16 10 -3 6 1 10 9 10 9 0 16 -4
16 -10z m7 -216 c-3 -3 -12 -4 -19 -1 -8 3 -5 6 6 6 11 1 17 -2 13 -5z m243
-74 c0 -5 -2 -10 -4 -10 -3 0 -8 5 -11 10 -3 6 -1 10 4 10 6 0 11 -4 11 -10z
m377 -182 c-3 -8 -6 -5 -6 6 -1 11 2 17 5 13 3 -3 4 -12 1 -19z m-299 -42 c-7
-8 -15 -12 -17 -11 -5 6 10 25 20 25 5 0 4 -6 -3 -14z m-813 -36 c-3 -5 -11
-10 -16 -10 -6 0 -7 5 -4 10 3 6 11 10 16 10 6 0 7 -4 4 -10z m955 -10 c0 -5
-2 -10 -4 -10 -3 0 -8 5 -11 10 -3 6 -1 10 4 10 6 0 11 -4 11 -10z m-875 -31
c11 -17 -1 -21 -15 -4 -8 9 -8 15 -2 15 6 0 14 -5 17 -11z m40 -19 c3 -5 1
-10 -4 -10 -6 0 -11 5 -11 10 0 6 2 10 4 10 3 0 8 -4 11 -10z m211 -36 c-4 -9
-9 -15 -11 -12 -3 3 -3 13 1 22 4 9 9 15 11 12 3 -3 3 -13 -1 -22z m44 -18 c0
-3 -4 -8 -10 -11 -5 -3 -10 -1 -10 4 0 6 5 11 10 11 6 0 10 -2 10 -4z m717
-28 c-3 -8 -6 -5 -6 6 -1 11 2 17 5 13 3 -3 4 -12 1 -19z m-1090 -120 c-3 -8
-6 -5 -6 6 -1 11 2 17 5 13 3 -3 4 -12 1 -19z m393 -4 c0 -7 -5 -16 -12 -20
-6 -4 -8 -3 -5 3 4 6 0 13 -8 17 -22 8 -18 25 5 19 11 -3 20 -11 20 -19z m30
-34 c0 -5 -4 -10 -10 -10 -5 0 -10 5 -10 10 0 6 5 10 10 10 6 0 10 -4 10 -10z
m-17 -34 c17 -15 23 -26 16 -28 -8 -3 -9 -9 -5 -17 7 -11 10 -11 18 0 6 10 7
6 2 -11 -4 -14 -14 -30 -23 -37 -14 -11 -14 -12 -1 -13 18 0 43 -37 31 -44 -5
-3 -11 3 -14 14 -3 12 -14 20 -26 20 -12 0 -21 6 -21 15 0 8 -4 15 -9 15 -4 0
-6 11 -3 25 2 15 0 25 -7 25 -6 0 -11 7 -11 15 0 8 5 15 11 15 5 0 7 5 4 10
-5 8 -11 7 -21 -1 -11 -9 -14 -8 -14 5 0 24 41 20 73 -8z m-435 -177 c-3 -8
-7 -3 -11 10 -4 17 -3 21 5 13 5 -5 8 -16 6 -23z m-15 -35 c-6 -17 -23 -9 -23
11 0 8 6 12 14 9 8 -3 12 -12 9 -20z"/>
<path d="M4036 11569 c3 -6 0 -16 -7 -21 -12 -8 -11 -9 1 -5 18 4 27 37 10 37
-6 0 -8 -5 -4 -11z"/>
<path d="M4110 11530 c0 -5 5 -10 11 -10 5 0 7 5 4 10 -3 6 -8 10 -11 10 -2 0
-4 -4 -4 -10z"/>
<path d="M4205 11450 c3 -5 11 -10 16 -10 6 0 7 5 4 10 -3 6 -11 10 -16 10 -6
0 -7 -4 -4 -10z"/>
<path d="M3548 11313 c7 -3 16 -2 19 1 4 3 -2 6 -13 5 -11 0 -14 -3 -6 -6z"/>
<path d="M3490 11286 c0 -2 7 -9 15 -16 9 -7 15 -8 15 -2 0 5 -7 12 -15 16 -8
3 -15 4 -15 2z"/>
<path d="M3537 11269 c7 -7 15 -10 18 -7 3 3 -2 9 -12 12 -14 6 -15 5 -6 -5z"/>
<path d="M3520 11237 c0 -8 7 -14 15 -14 11 0 12 4 4 14 -6 7 -13 13 -15 13
-2 0 -4 -6 -4 -13z"/>
<path d="M3597 11209 c7 -7 15 -10 18 -7 3 3 -2 9 -12 12 -14 6 -15 5 -6 -5z"/>
<path d="M5490 8783 c0 -14 19 -38 25 -32 8 8 -5 39 -16 39 -5 0 -9 -3 -9 -7z"/>
<path d="M4746 8664 c-5 -14 -4 -15 9 -4 17 14 19 20 6 20 -5 0 -12 -7 -15
-16z"/>
<path d="M4815 8630 c-3 -6 1 -7 9 -4 18 7 21 14 7 14 -6 0 -13 -4 -16 -10z"/>
<path d="M5350 8500 c0 -5 5 -10 10 -10 6 0 10 5 10 10 0 6 -4 10 -10 10 -5 0
-10 -4 -10 -10z"/>
<path d="M5420 8490 c0 -5 5 -10 10 -10 6 0 10 5 10 10 0 6 -4 10 -10 10 -5 0
-10 -4 -10 -10z"/>
<path d="M5285 8440 c-3 -5 -2 -10 4 -10 5 0 13 5 16 10 3 6 2 10 -4 10 -5 0
-13 -4 -16 -10z"/>
<path d="M5132 8398 c3 -7 15 -14 29 -16 23 -2 23 -2 5 13 -24 18 -39 20 -34
3z"/>
<path d="M4730 8240 c0 -6 5 -8 12 -4 8 5 9 0 6 -14 -4 -12 -2 -22 4 -22 14 0
5 43 -9 48 -7 2 -13 -1 -13 -8z"/>
<path d="M4695 8119 c-4 -6 -5 -12 -2 -15 2 -3 7 2 10 11 7 17 1 20 -8 4z"/>
<path d="M3971 7874 c0 -11 3 -14 6 -6 3 7 2 16 -1 19 -3 4 -6 -2 -5 -13z"/>
<path d="M7945 11950 c-55 -38 -126 -87 -158 -110 -32 -22 -63 -38 -68 -34 -6
3 -8 -37 -4 -113 2 -65 7 -331 10 -592 3 -261 7 -477 10 -479 5 -6 9 59 7 123
-1 22 3 63 9 91 9 45 13 52 44 63 19 7 39 9 45 6 5 -3 10 -28 10 -56 0 -36 4
-49 15 -49 10 0 12 6 8 18 -6 15 -5 15 10 3 16 -12 17 -8 17 62 l0 75 36 22
c23 15 39 19 45 13 6 -6 12 -99 14 -213 2 -111 6 -204 8 -206 2 -3 15 0 28 5
l24 10 -24 0 c-18 1 -22 5 -16 19 5 9 8 59 7 110 0 72 3 92 14 92 12 0 14 93
13 605 -1 333 -2 605 -3 605 0 0 -46 -31 -101 -70z m29 -392 c3 -62 8 -188 10
-280 l5 -167 -28 -21 c-52 -36 -61 -29 -62 53 0 39 -3 165 -5 278 l-5 207 27
21 c47 37 52 31 58 -91z m-150 -11 c3 -13 8 -138 12 -279 l7 -257 -37 -17
c-61 -29 -61 -27 -61 279 l0 271 25 13 c36 18 47 16 54 -10z"/>
<path d="M5426 11978 c16 -18 35 -38 42 -46 7 -8 21 -31 32 -52 10 -21 27 -41
37 -44 15 -6 15 -5 2 11 -8 10 -21 29 -28 44 -17 35 -90 119 -104 119 -6 0 2
-14 19 -32z"/>
<path d="M5515 11919 c52 -59 78 -85 69 -68 -13 24 -68 84 -85 94 -8 4 0 -7
16 -26z"/>
<path d="M5610 11810 c6 -11 13 -20 16 -20 2 0 0 9 -6 20 -6 11 -13 20 -16 20
-2 0 0 -9 6 -20z"/>
<path d="M5650 11748 c0 -4 9 -22 20 -40 11 -18 20 -28 20 -23 0 6 -9 24 -20
40 -11 17 -20 27 -20 23z"/>
<path d="M5706 11637 c3 -10 9 -15 12 -12 3 3 0 11 -7 18 -10 9 -11 8 -5 -6z"/>
<path d="M7861 10774 c0 -11 3 -14 6 -6 3 7 2 16 -1 19 -3 4 -6 -2 -5 -13z"/>
<path d="M7892 10765 c0 -16 2 -22 5 -12 2 9 2 23 0 30 -3 6 -5 -1 -5 -18z"/>
<path d="M7861 10734 c0 -11 3 -14 6 -6 3 7 2 16 -1 19 -3 4 -6 -2 -5 -13z"/>
<path d="M4893 10573 c0 -7 4 -13 7 -13 4 0 12 6 18 13 8 10 6 13 -7 13 -10 0
-18 -6 -18 -13z"/>
<path d="M5035 10580 c3 -5 8 -10 11 -10 2 0 4 5 4 10 0 6 -5 10 -11 10 -5 0
-7 -4 -4 -10z"/>
<path d="M5090 10571 c0 -25 6 -27 13 -6 4 8 2 17 -3 20 -6 4 -10 -3 -10 -14z"/>
<path d="M7726 10565 c-3 -8 -1 -15 4 -15 6 0 10 7 10 15 0 8 -2 15 -4 15 -2
0 -6 -7 -10 -15z"/>
<path d="M4736 10482 c-11 -15 -14 -22 -5 -16 8 4 24 9 37 10 12 0 26 5 30 9
4 5 -1 5 -10 2 -10 -3 -21 0 -25 7 -6 11 -12 8 -27 -12z"/>
<path d="M7730 10499 c0 -5 5 -7 10 -4 6 3 10 8 10 11 0 2 -4 4 -10 4 -5 0
-10 -5 -10 -11z"/>
<path d="M4655 10420 c3 -5 8 -10 11 -10 2 0 4 5 4 10 0 6 -5 10 -11 10 -5 0
-7 -4 -4 -10z"/>
<path d="M4675 10400 c-3 -5 -1 -10 4 -10 6 0 11 5 11 10 0 6 -2 10 -4 10 -3
0 -8 -4 -11 -10z"/>
<path d="M4425 10390 c3 -5 8 -10 11 -10 2 0 4 5 4 10 0 6 -5 10 -11 10 -5 0
-7 -4 -4 -10z"/>
<path d="M4491 10391 c-1 -8 -8 -11 -21 -8 -25 6 -25 3 0 -21 13 -12 32 -18
57 -16 21 1 44 -3 52 -10 11 -9 13 -8 9 4 -3 8 -18 16 -34 16 -50 2 -55 4 -50
13 3 5 15 7 25 4 11 -3 28 0 38 7 17 11 17 11 -1 5 -11 -3 -23 0 -27 7 -6 9
-11 9 -22 -1 -12 -9 -16 -9 -20 1 -4 10 -6 10 -6 -1z m6 -26 c0 -8 -4 -12 -9
-9 -5 3 -6 10 -3 15 9 13 12 11 12 -6z"/>
<path d="M5142 10370 c0 -14 2 -19 5 -12 2 6 2 18 0 25 -3 6 -5 1 -5 -13z"/>
<path d="M4290 10371 c0 -10 42 -23 49 -15 7 6 -20 24 -36 24 -7 0 -13 -4 -13
-9z"/>
<path d="M4635 10371 c-6 -11 13 -26 22 -17 4 3 1 6 -6 6 -7 0 -9 5 -6 10 3 6
4 10 1 10 -3 0 -7 -4 -11 -9z"/>
<path d="M4274 10348 c2 -18 -2 -28 -13 -31 -9 -3 1 -5 22 -6 20 0 37 3 37 8
0 5 -8 8 -17 7 -10 0 -20 9 -25 24 -8 25 -8 25 -4 -2z"/>
<path d="M4590 10366 c0 -2 7 -9 15 -16 9 -7 15 -8 15 -2 0 5 -7 12 -15 16 -8
3 -15 4 -15 2z"/>
<path d="M4200 10340 c0 -5 9 -10 21 -10 11 0 17 5 14 10 -3 6 -13 10 -21 10
-8 0 -14 -4 -14 -10z"/>
<path d="M4671 10343 c-1 -6 -9 -14 -18 -16 -10 -3 -6 -4 9 -3 15 1 31 6 35
11 4 4 3 5 -4 2 -6 -4 -14 -1 -16 5 -4 9 -6 9 -6 1z"/>
<path d="M4184 10318 c2 -15 0 -28 -6 -30 -6 -2 -4 -9 4 -16 12 -10 14 -6 13
23 -1 20 -5 39 -9 42 -4 4 -5 -4 -2 -19z"/>
<path d="M4548 10323 c7 -3 16 -2 19 1 4 3 -2 6 -13 5 -11 0 -14 -3 -6 -6z"/>
<path d="M3512 10296 c-7 -17 -17 -24 -27 -20 -8 3 -12 11 -8 17 3 6 1 7 -5 3
-16 -10 -16 -11 14 -31 15 -9 23 -12 20 -6 -4 6 1 14 12 19 13 5 17 13 13 25
-6 17 -8 16 -19 -7z"/>
<path d="M4370 10310 c0 -5 5 -10 11 -10 5 0 7 5 4 10 -3 6 -8 10 -11 10 -2 0
-4 -4 -4 -10z"/>
<path d="M3701 10294 c0 -11 3 -14 6 -6 3 7 2 16 -1 19 -3 4 -6 -2 -5 -13z"/>
<path d="M4580 10300 c0 -5 5 -10 10 -10 6 0 10 5 10 10 0 6 -4 10 -10 10 -5
0 -10 -4 -10 -10z"/>
<path d="M4636 10293 c-6 -14 -5 -15 5 -6 7 7 10 15 7 18 -3 3 -9 -2 -12 -12z"/>
<path d="M4000 10289 c0 -6 -9 -8 -20 -4 -14 5 -20 2 -20 -9 0 -9 9 -16 20
-16 11 0 20 -5 20 -12 0 -21 13 1 16 27 1 14 -2 25 -7 25 -5 0 -9 -5 -9 -11z"/>
<path d="M4225 10289 c-11 -16 -1 -19 13 -3 7 8 8 14 3 14 -5 0 -13 -5 -16
-11z"/>
<path d="M4285 10290 c3 -5 8 -10 11 -10 2 0 4 5 4 10 0 6 -5 10 -11 10 -5 0
-7 -4 -4 -10z"/>
<path d="M4340 10289 c0 -5 5 -7 10 -4 6 3 10 8 10 11 0 2 -4 4 -10 4 -5 0
-10 -5 -10 -11z"/>
<path d="M3564 10266 c11 -9 27 -16 35 -15 14 0 14 1 1 6 -8 3 -24 10 -35 15
-20 9 -20 9 -1 -6z"/>
<path d="M4146 10271 c-3 -5 1 -11 9 -14 9 -4 12 -1 8 9 -6 16 -10 17 -17 5z"/>
<path d="M4359 10263 c-13 -16 -12 -17 4 -4 16 13 21 21 13 21 -2 0 -10 -8
-17 -17z"/>
<path d="M4505 10259 c-4 -6 -4 -13 -1 -16 3 -4 6 -1 6 6 0 7 5 9 12 5 7 -4 8
-3 4 4 -9 15 -13 15 -21 1z"/>
<path d="M4275 10250 c-3 -5 -1 -10 4 -10 6 0 11 5 11 10 0 6 -2 10 -4 10 -3
0 -8 -4 -11 -10z"/>
<path d="M3673 10225 c-10 -10 -9 -14 2 -19 17 -6 26 5 17 21 -5 8 -11 7 -19
-2z"/>
<path d="M3778 10233 c7 -3 16 -2 19 1 4 3 -2 6 -13 5 -11 0 -14 -3 -6 -6z"/>
<path d="M4101 10223 c7 -12 15 -20 18 -17 3 2 -3 12 -13 22 -17 16 -18 16 -5
-5z"/>
<path d="M4001 10226 c2 -2 18 -6 34 -10 22 -5 26 -4 15 4 -14 9 -59 15 -49 6z"/>
<path d="M4230 10225 c0 -7 39 -12 49 -5 7 4 -1 7 -18 8 -17 0 -31 -1 -31 -3z"/>
<path d="M4998 10213 c7 -3 16 -2 19 1 4 3 -2 6 -13 5 -11 0 -14 -3 -6 -6z"/>
<path d="M3747 10189 c4 -15 8 -17 14 -8 8 14 3 29 -11 29 -4 0 -6 -9 -3 -21z"/>
<path d="M3990 10200 l-25 -8 28 -1 c15 -1 27 4 27 9 0 6 -1 10 -2 9 -2 -1
-14 -5 -28 -9z"/>
<path d="M4056 10201 c-19 -7 -19 -8 0 -13 13 -3 21 0 21 8 0 8 -1 14 -1 13
-1 0 -10 -4 -20 -8z"/>
<path d="M4426 10193 c-6 -14 -5 -15 5 -6 7 7 10 15 7 18 -3 3 -9 -2 -12 -12z"/>
<path d="M3798 10193 c6 -2 18 -2 25 0 6 3 1 5 -13 5 -14 0 -19 -2 -12 -5z"/>
<path d="M4240 10196 c0 -2 7 -7 16 -10 8 -3 12 -2 9 4 -6 10 -25 14 -25 6z"/>
<path d="M4300 10195 c0 -2 6 -8 13 -14 10 -8 14 -7 14 2 0 8 -6 14 -14 14 -7
0 -13 -1 -13 -2z"/>
<path d="M4048 10153 c7 -3 16 -2 19 1 4 3 -2 6 -13 5 -11 0 -14 -3 -6 -6z"/>
<path d="M5007 10141 c-4 -17 -3 -21 5 -13 5 5 8 16 6 23 -3 8 -7 3 -11 -10z"/>
<path d="M3680 10053 c0 -5 17 -17 38 -29 20 -11 36 -25 35 -30 -1 -6 7 -16
19 -23 11 -7 17 -8 13 -2 -3 6 1 11 10 11 9 0 13 -4 10 -10 -3 -5 3 -15 15
-22 11 -7 20 -19 20 -26 0 -8 -5 -10 -12 -6 -9 5 -8 2 1 -9 16 -20 20 -18 26
11 5 28 -63 91 -76 70 -8 -12 -11 -6 -8 18 1 7 -71 53 -83 54 -5 0 -8 -3 -8
-7z"/>
<path d="M4999 10047 c5 -5 7 -16 4 -23 -3 -8 0 -14 7 -14 6 0 9 4 6 9 -4 5 0
12 6 14 10 4 10 6 0 6 -7 1 -11 5 -8 9 3 5 -2 9 -10 9 -9 0 -11 -4 -5 -10z"/>
<path d="M3866 9911 c-6 -9 42 -67 49 -59 2 2 -7 18 -20 36 -13 18 -26 29 -29
23z"/>
<path d="M5998 9873 c7 -3 16 -2 19 1 4 3 -2 6 -13 5 -11 0 -14 -3 -6 -6z"/>
<path d="M5125 9790 c-3 -5 -1 -10 4 -10 6 0 11 5 11 10 0 6 -2 10 -4 10 -3 0
-8 -4 -11 -10z"/>
<path d="M4881 9691 c-8 -5 -9 -11 -3 -15 5 -3 12 1 16 9 6 17 6 18 -13 6z"/>
<path d="M3210 9668 c-2 -5 -3 -12 -4 -18 0 -5 -5 -9 -9 -7 -5 1 -13 -6 -18
-15 -6 -10 -15 -18 -20 -18 -18 0 -41 -29 -33 -42 5 -10 4 -10 -6 -1 -18 17
-40 5 -40 -23 0 -13 -12 -34 -26 -47 -18 -17 -21 -24 -10 -24 8 0 13 4 10 9
-3 4 2 5 11 1 11 -4 13 -8 6 -13 -6 -3 -13 -17 -16 -29 -4 -19 -2 -21 11 -10
8 6 17 9 21 5 3 -3 1 -6 -6 -6 -7 0 -10 -4 -7 -9 4 -5 0 -12 -6 -14 -10 -4 -9
-8 2 -16 13 -9 13 -11 -2 -11 -9 0 -18 4 -20 9 -1 5 -12 3 -23 -5 -20 -15 -20
-15 0 -13 39 4 66 -1 60 -11 -3 -6 1 -7 9 -4 9 3 24 3 34 -2 13 -6 10 -9 -18
-15 l-35 -8 35 4 c61 7 100 17 100 26 0 5 20 9 45 9 46 0 59 -12 28 -25 -10
-3 -19 -1 -21 4 -2 6 -13 11 -25 10 -21 0 -21 -1 -2 -9 19 -8 19 -9 -2 -9 -25
-1 -33 -31 -8 -31 8 0 15 -5 15 -11 0 -7 -11 -9 -26 -6 -22 4 -25 2 -22 -18 4
-17 -3 -27 -25 -40 -19 -11 -25 -20 -18 -25 8 -4 0 -13 -21 -23 -25 -13 -28
-17 -13 -17 18 -1 17 -3 -8 -25 -25 -22 -26 -25 -8 -25 14 0 18 -5 14 -19 -2
-10 1 -21 9 -24 19 -7 68 3 68 14 0 5 7 6 15 3 8 -4 15 -10 15 -15 0 -5 -7 -9
-15 -9 -8 0 -15 -4 -15 -10 0 -5 2 -10 5 -10 11 0 63 59 67 76 3 17 5 17 18 3
8 -9 23 -14 33 -11 11 3 23 -1 28 -9 6 -10 9 -10 9 -1 0 6 5 12 11 12 5 0 7
-4 4 -10 -3 -5 -1 -10 5 -10 6 0 9 -4 6 -9 -4 -5 0 -12 6 -14 7 -3 -8 -6 -34
-6 -26 -1 -50 -6 -54 -12 -3 -6 -14 -9 -23 -6 -10 2 -26 -2 -36 -9 -14 -11
-15 -14 -4 -15 8 0 6 -4 -6 -9 -20 -9 -20 -9 0 -9 12 -1 26 4 33 11 13 13 14
11 16 -24 1 -15 8 -22 24 -23 13 -1 25 2 28 7 4 5 14 1 23 -9 14 -14 15 -20 5
-30 -7 -7 -20 -13 -28 -13 -9 0 -16 -4 -16 -8 0 -5 28 -3 62 4 34 7 64 11 67
9 2 -3 -10 -8 -28 -11 -17 -4 -34 -11 -38 -17 -4 -6 -1 -7 6 -2 8 4 21 -1 32
-14 11 -12 24 -21 30 -21 6 0 3 7 -5 16 -14 14 -14 34 0 34 3 0 3 -4 -1 -9 -8
-14 24 -27 60 -26 17 1 36 -5 43 -12 15 -15 42 -18 42 -5 0 5 7 9 14 9 8 0 14
-5 13 -11 -4 -22 41 -17 57 6 15 21 16 21 17 3 0 -11 3 -14 6 -7 2 6 14 12 26
13 21 0 21 1 2 10 -16 7 -13 8 13 4 22 -3 34 0 38 9 3 8 14 12 24 9 12 -3 29
5 45 21 25 25 63 37 50 16 -3 -5 -4 -10 0 -10 3 0 10 10 15 23 7 18 9 18 9 4
1 -10 6 -15 11 -12 6 3 10 1 10 -5 0 -6 4 -9 9 -6 5 4 12 0 14 -6 3 -7 4 0 4
16 -1 17 4 31 12 34 10 3 11 -2 6 -18 -5 -15 -4 -20 4 -16 6 4 11 14 11 22 0
8 5 14 10 14 6 0 10 9 10 20 0 10 9 24 20 30 10 6 24 28 30 51 6 22 18 43 25
46 8 3 12 9 9 15 -3 5 1 17 9 26 20 22 22 33 5 43 -10 7 -9 9 5 9 12 0 17 8
17 29 0 16 3 36 6 44 3 8 -2 21 -10 30 -8 8 -12 17 -9 21 4 3 1 6 -5 6 -7 0
-12 7 -12 16 0 8 -4 12 -10 9 -5 -3 -10 -2 -10 4 0 5 -8 12 -17 14 -13 3 -12
5 5 6 33 1 17 21 -18 21 -26 0 -28 3 -24 30 4 21 1 32 -10 36 -9 3 -16 15 -16
25 0 14 -7 19 -25 19 -15 0 -24 5 -23 13 2 6 -3 11 -9 10 -7 -2 -13 5 -14 15
0 10 -3 12 -6 4 -2 -6 -9 -10 -14 -6 -5 3 -9 0 -9 -7 0 -8 -4 -8 -16 2 -14 12
-14 14 3 20 13 6 9 8 -15 8 -18 1 -31 -3 -28 -7 3 -5 -1 -9 -9 -9 -8 0 -14 3
-13 6 2 22 -5 31 -22 31 -11 0 -20 -4 -20 -10 0 -5 -5 -10 -11 -10 -5 0 -8 4
-5 9 6 9 -16 21 -37 21 -7 0 -6 -4 3 -10 13 -8 13 -10 -1 -10 -9 0 -23 10 -31
22 -12 18 -17 19 -34 9 -18 -12 -18 -12 2 -8 13 3 21 -1 21 -10 0 -15 -37 -8
-49 10 -4 7 -12 6 -23 -3 -13 -11 -18 -11 -24 -1 -11 17 -66 24 -91 11 -18
-10 -21 -9 -18 7 2 13 -2 17 -17 15 -11 -2 -24 -8 -30 -14 -7 -7 -7 -9 0 -5 6
3 17 1 25 -4 11 -7 8 -8 -10 -5 -14 3 -33 5 -43 5 -12 1 -16 6 -11 14 6 10 4
10 -7 0 -16 -16 -49 -17 -49 -2 0 5 -5 7 -11 3 -6 -3 -16 0 -21 7 -8 11 -9 10
-4 -3 3 -10 1 -18 -4 -18 -6 0 -10 5 -10 10 0 6 -5 10 -11 10 -5 0 -8 -4 -5
-8 3 -5 -9 -16 -27 -26 l-32 -17 23 20 c21 18 15 40 -7 27 -5 -4 -12 0 -14 6
-3 7 -6 10 -7 6z m90 -42 c0 -2 -7 -7 -16 -10 -8 -3 -12 -2 -9 4 6 10 25 14
25 6z m-95 -15 c3 -5 2 -12 -3 -15 -5 -3 -9 1 -9 9 0 17 3 19 12 6z m-103 -73
c-7 -7 -10 -5 -7 8 5 29 6 30 12 16 3 -8 1 -18 -5 -24z m13 -128 c-3 -5 -12
-10 -18 -10 -7 0 -6 4 3 10 19 12 23 12 15 0z m85 -40 c0 -5 -8 -10 -17 -10
-15 0 -16 2 -3 10 19 12 20 12 20 0z m63 -47 c-7 -2 -19 -2 -25 0 -7 3 -2 5
12 5 14 0 19 -2 13 -5z m229 -106 l20 -28 -29 6 c-77 18 -93 26 -93 50 0 22
30 43 53 37 4 -1 7 4 8 11 0 6 5 -1 11 -18 6 -16 20 -43 30 -58z m-116 -78 c4
-8 9 -7 15 2 7 11 9 10 9 -3 0 -20 -15 -24 -25 -8 -5 8 -11 8 -20 0 -10 -8
-15 -8 -21 1 -4 8 -3 9 4 5 7 -4 12 -2 12 3 0 14 17 14 26 0z"/>
<path d="M4355 9610 c-3 -5 -1 -10 4 -10 6 0 11 5 11 10 0 6 -2 10 -4 10 -3 0
-8 -4 -11 -10z"/>
<path d="M4511 9574 c0 -11 3 -14 6 -6 3 7 2 16 -1 19 -3 4 -6 -2 -5 -13z"/>
<path d="M4268 9513 c6 -2 18 -2 25 0 6 3 1 5 -13 5 -14 0 -19 -2 -12 -5z"/>
<path d="M4238 9498 c-4 -8 -19 -18 -33 -22 -29 -7 -65 -36 -45 -36 6 0 9 -4
5 -9 -3 -5 3 -11 12 -13 15 -3 14 -5 -5 -10 -12 -3 -20 -2 -17 2 9 15 -10 18
-23 4 -11 -12 -10 -14 3 -14 8 0 15 -5 15 -11 0 -8 4 -8 13 -2 20 16 69 25 76
14 4 -6 12 -7 21 -1 13 8 12 10 -3 10 -10 0 -16 4 -13 9 3 5 -1 14 -9 21 -10
9 -15 9 -15 1 0 -6 -7 -11 -15 -11 -22 0 -18 21 4 27 11 3 22 11 25 19 3 7 12
11 20 8 8 -3 17 0 22 7 5 9 2 10 -9 6 -9 -3 -17 -1 -20 6 -2 6 -6 5 -9 -5z"/>
<path d="M4340 9500 c-8 -6 -12 -10 -7 -10 4 0 -2 -9 -14 -21 -13 -13 -24 -17
-32 -11 -17 13 -44 11 -44 -3 0 -7 10 -12 21 -11 12 1 24 -2 27 -6 3 -4 20 8
39 27 33 34 38 53 10 35z"/>
<path d="M4083 9443 c9 -2 25 -2 35 0 9 3 1 5 -18 5 -19 0 -27 -2 -17 -5z"/>
<path d="M4118 9373 c7 -3 16 -2 19 1 4 3 -2 6 -13 5 -11 0 -14 -3 -6 -6z"/>
<path d="M3048 9353 c7 -3 16 -2 19 1 4 3 -2 6 -13 5 -11 0 -14 -3 -6 -6z"/>
<path d="M3159 9302 c11 -8 11 -10 0 -15 -10 -4 -8 -6 4 -6 21 -1 18 21 -4 27
-12 3 -12 2 0 -6z"/>
<path d="M2527 9153 c-16 -41 -23 -178 -9 -187 5 -3 13 -34 16 -68 4 -34 12
-70 17 -80 6 -11 18 -49 28 -86 19 -70 48 -142 56 -142 3 0 -2 16 -10 37 -12
28 -16 84 -18 242 -1 113 1 218 5 233 6 21 2 33 -18 57 -34 40 -49 39 -67 -6z"/>
<path d="M3270 9080 c0 -5 7 -7 15 -4 8 4 15 8 15 10 0 2 -7 4 -15 4 -8 0 -15
-4 -15 -10z"/>
<path d="M2790 8988 c0 -26 4 -38 8 -30 8 12 4 72 -4 72 -2 0 -4 -19 -4 -42z"/>
<path d="M3190 8989 c0 -5 5 -7 10 -4 6 3 10 8 10 11 0 2 -4 4 -10 4 -5 0 -10
-5 -10 -11z"/>
<path d="M3226 8992 c-2 -4 -2 -12 2 -17 9 -13 44 -16 36 -4 -3 5 -13 9 -22
10 -11 1 -8 4 8 9 23 7 23 8 3 9 -12 1 -24 -3 -27 -7z"/>
<path d="M3318 8953 c7 -3 16 -2 19 1 4 3 -2 6 -13 5 -11 0 -14 -3 -6 -6z"/>
<path d="M2847 8943 c-11 -10 -8 -45 3 -38 5 3 6 13 3 22 -5 12 -3 14 7 8 9
-5 11 -4 6 3 -8 14 -10 14 -19 5z"/>
<path d="M2787 8915 c-10 -7 -23 -30 -29 -51 -10 -38 -38 -74 -56 -74 -21 0
-42 -39 -42 -79 0 -73 80 -193 135 -203 16 -2 21 -12 23 -50 3 -43 5 -47 34
-53 21 -5 35 -2 46 9 15 14 13 21 -17 78 -19 35 -41 71 -50 82 -24 27 -21 120
7 177 27 56 27 70 2 117 -32 61 -33 62 -53 47z"/>
<path d="M3775 8890 c-3 -5 -1 -10 4 -10 6 0 11 5 11 10 0 6 -2 10 -4 10 -3 0
-8 -4 -11 -10z"/>
<path d="M3470 8871 c0 -4 6 -8 13 -8 6 0 17 -2 24 -4 6 -2 13 0 15 5 1 5 -9
10 -24 12 -16 1 -28 -1 -28 -5z"/>
<path d="M3867 8866 c-4 -10 -1 -13 8 -9 8 3 12 9 9 14 -7 12 -11 11 -17 -5z"/>
<path d="M8020 8860 c-104 -33 -167 -86 -211 -177 -11 -23 -25 -45 -30 -48 -4
-3 -14 -25 -21 -48 -6 -23 -19 -53 -29 -67 -29 -42 -43 -106 -33 -143 6 -17 7
-45 4 -62 l-6 -30 -79 2 -80 2 75 -17 c61 -14 74 -21 72 -35 -2 -12 4 -17 22
-17 14 0 28 -4 31 -10 3 -5 1 -10 -4 -10 -23 0 -8 -17 47 -53 33 -20 82 -44
110 -52 47 -14 76 -40 70 -62 -1 -4 4 -19 12 -33 12 -22 12 -24 -2 -12 -13 10
-17 10 -22 -3 -4 -11 1 -15 17 -15 16 0 18 -3 8 -9 -15 -9 1 -31 49 -64 22
-15 23 -20 13 -48 -7 -18 -10 -36 -6 -41 3 -6 9 -33 13 -62 4 -28 8 129 9 356
l1 408 -32 -6 c-25 -4 -29 -3 -18 5 8 6 23 11 33 11 15 0 17 15 17 175 0 96
-1 175 -2 174 -2 0 -14 -4 -28 -9z m-116 -342 c20 -38 20 -44 2 -29 -16 14
-40 75 -26 66 5 -3 16 -19 24 -37z m-167 -110 c7 -24 21 -53 33 -65 l21 -23
-22 0 c-18 0 -20 -2 -9 -15 20 -25 -4 -43 -26 -20 -13 12 -14 19 -5 24 9 6 9
15 1 36 -14 36 -21 105 -11 105 4 0 12 -19 18 -42z m293 -482 c0 -3 -4 -8 -10
-11 -5 -3 -10 -1 -10 4 0 6 5 11 10 11 6 0 10 -2 10 -4z"/>
<path d="M3580 8850 c0 -5 5 -10 10 -10 6 0 10 5 10 10 0 6 -4 10 -10 10 -5 0
-10 -4 -10 -10z"/>
<path d="M6002 8569 c-44 -59 -68 -120 -57 -139 13 -22 31 -7 58 48 30 62 59
152 49 151 -4 0 -26 -27 -50 -60z"/>
<path d="M3656 8501 c-12 -5 -15 -10 -9 -14 6 -4 16 0 23 8 14 17 13 17 -14 6z"/>
<path d="M5792 8484 c-10 -11 -10 -14 0 -15 7 0 4 -4 -8 -9 -17 -7 -24 -25
-38 -98 -9 -49 -16 -109 -16 -131 0 -40 2 -43 43 -61 23 -11 60 -19 82 -18
l40 1 -46 6 c-25 4 -58 15 -73 24 -23 15 -27 24 -24 55 3 34 5 37 38 40 89 6
99 11 109 49 12 44 8 52 -17 30 -29 -26 -71 -22 -82 9 -15 38 -12 58 10 82 21
22 27 37 11 27 -5 -3 -11 1 -13 9 -3 12 -5 12 -16 0z"/>
<path d="M3800 8481 c0 -6 4 -13 10 -16 6 -3 7 1 4 9 -7 18 -14 21 -14 7z"/>
<path d="M3845 8320 c3 -5 14 -10 23 -10 15 0 15 2 2 10 -20 13 -33 13 -25 0z"/>
<path d="M3628 8243 c7 -3 16 -2 19 1 4 3 -2 6 -13 5 -11 0 -14 -3 -6 -6z"/>
<path d="M3865 8230 c-18 -8 -18 -9 -2 -9 10 -1 16 -5 13 -9 -3 -5 1 -9 9 -9
10 0 12 4 5 12 -5 7 -7 15 -3 18 8 9 3 8 -22 -3z"/>
<path d="M3613 8215 c-17 -19 -16 -30 0 -16 8 6 18 7 22 3 5 -4 5 -2 2 5 -4 6
-1 14 5 16 9 4 8 6 -2 6 -8 0 -21 -6 -27 -14z"/>
<path d="M5692 8190 c0 -14 2 -19 5 -12 2 6 2 18 0 25 -3 6 -5 1 -5 -13z"/>
<path d="M3428 8097 c-16 -16 -28 -33 -28 -39 0 -6 12 2 27 18 15 16 31 29 37
29 5 0 11 5 13 11 7 20 -22 9 -49 -19z"/>
<path d="M3957 8034 c6 -17 8 -17 21 -1 8 10 6 13 -8 14 -13 1 -17 -3 -13 -13z"/>
<path d="M3665 7619 c-4 -6 -5 -12 -2 -15 2 -3 7 2 10 11 7 17 1 20 -8 4z"/>
<path d="M3725 7590 c-3 -5 -1 -10 4 -10 6 0 11 5 11 10 0 6 -2 10 -4 10 -3 0
-8 -4 -11 -10z"/>
<path d="M3861 7364 c0 -11 3 -14 6 -6 3 7 2 16 -1 19 -3 4 -6 -2 -5 -13z"/>
<path d="M3902 7350 c-12 -12 -22 -23 -22 -26 0 -7 38 15 45 27 13 20 -1 19
-23 -1z"/>
<path d="M3758 7333 c7 -3 16 -2 19 1 4 3 -2 6 -13 5 -11 0 -14 -3 -6 -6z"/>
<path d="M3861 7294 c0 -11 3 -14 6 -6 3 7 2 16 -1 19 -3 4 -6 -2 -5 -13z"/>
<path d="M3795 7260 c3 -5 8 -10 11 -10 2 0 4 5 4 10 0 6 -5 10 -11 10 -5 0
-7 -4 -4 -10z"/>
<path d="M4667 7199 c7 -7 15 -10 18 -7 3 3 -2 9 -12 12 -14 6 -15 5 -6 -5z"/>
<path d="M4682 7155 c0 -16 2 -22 5 -12 2 9 2 23 0 30 -3 6 -5 -1 -5 -18z"/>
<path d="M4726 7164 c-9 -24 -2 -26 12 -4 7 11 8 20 3 20 -5 0 -12 -7 -15 -16z"/>
<path d="M4125 7110 c-3 -6 1 -7 9 -4 18 7 21 14 7 14 -6 0 -13 -4 -16 -10z"/>
<path d="M4206 7104 c-5 -14 -4 -15 9 -4 17 14 19 20 6 20 -5 0 -12 -7 -15
-16z"/>
<path d="M4288 7093 c7 -3 16 -2 19 1 4 3 -2 6 -13 5 -11 0 -14 -3 -6 -6z"/>
<path d="M4319 7083 c-1 -5 -1 -11 0 -15 0 -5 -3 -8 -9 -8 -5 0 -10 -4 -10
-10 0 -22 26 -8 28 15 2 22 -6 37 -9 18z"/>
<path d="M4140 7055 c0 -8 7 -15 16 -15 14 0 14 3 4 15 -7 8 -14 15 -16 15 -2
0 -4 -7 -4 -15z"/>
<path d="M4091 7025 c0 -16 3 -25 7 -19 4 6 14 14 22 17 12 4 12 6 -2 6 -9 1
-19 7 -21 14 -3 6 -6 -1 -6 -18z"/>
<path d="M4280 7041 c0 -7 -4 -9 -10 -6 -5 3 -10 2 -10 -4 0 -5 4 -12 9 -15
10 -6 25 24 16 32 -3 3 -5 0 -5 -7z"/>
<path d="M4120 6995 c0 -8 7 -15 15 -15 8 0 15 4 15 9 0 5 -7 11 -15 15 -9 3
-15 0 -15 -9z"/>
<path d="M4015 6970 c4 -6 11 -8 16 -5 14 9 11 15 -7 15 -8 0 -12 -5 -9 -10z"/>
<path d="M3511 6914 c0 -11 3 -14 6 -6 3 7 2 16 -1 19 -3 4 -6 -2 -5 -13z"/>
<path d="M8043 6700 c0 -36 2 -50 4 -32 2 17 2 47 0 65 -2 17 -4 3 -4 -33z"/>
<path d="M3498 6533 c7 -3 16 -2 19 1 4 3 -2 6 -13 5 -11 0 -14 -3 -6 -6z"/>
<path d="M1925 5690 c-3 -5 3 -10 14 -10 12 0 21 5 21 10 0 6 -6 10 -14 10 -8
0 -18 -4 -21 -10z"/>
<path d="M4790 5601 c-43 -24 -175 -51 -247 -50 -57 1 -70 3 -48 9 17 4 26 8
20 9 -5 1 -29 6 -53 10 -52 10 -167 -16 -246 -56 -111 -55 -236 -138 -236
-156 0 -4 15 -21 33 -36 35 -32 74 -91 59 -91 -5 0 -17 10 -26 23 -9 12 -14
16 -11 10 9 -18 -1 -16 -40 10 -19 12 -35 28 -35 35 0 9 -7 11 -22 6 -25 -7
-36 -16 -111 -85 -39 -37 -46 -47 -32 -52 20 -8 75 18 75 36 0 9 2 9 8 0 6 -9
17 -10 41 -3 26 7 35 6 52 -11 10 -10 23 -19 28 -19 21 0 121 -65 117 -77 -3
-6 15 -25 39 -41 24 -16 41 -33 37 -37 -4 -5 0 -6 9 -3 11 4 20 -5 31 -37 9
-23 13 -47 9 -54 -4 -6 -29 -13 -54 -14 -26 -1 -49 -7 -51 -14 -3 -7 4 -32 15
-57 13 -31 26 -46 42 -48 12 -2 22 -8 22 -14 0 -6 8 -18 18 -28 9 -10 17 -24
17 -32 0 -13 12 -18 33 -15 11 2 9 -17 -3 -24 -15 -9 -12 -25 4 -25 18 0 33
-19 42 -54 5 -21 4 -27 -5 -22 -6 4 -11 0 -12 -11 0 -10 -2 -26 -4 -35 -2 -10
1 -18 5 -18 8 0 7 -80 -4 -305 -3 -44 -12 -97 -20 -117 -9 -21 -14 -38 -12
-38 3 0 -1 -18 -9 -40 -9 -25 -10 -38 -4 -34 8 4 7 0 0 -14 -6 -12 -13 -50
-15 -85 -3 -36 -9 -82 -14 -103 -12 -48 -11 -19 -16 -329 -3 -146 -1 -288 5
-325 5 -36 12 -87 15 -115 3 -27 9 -54 13 -60 4 -5 9 -75 11 -155 6 -290 6
-296 -35 -725 -3 -33 -5 -79 -5 -102 0 -24 -4 -43 -9 -43 -5 0 -9 -12 -10 -27
-1 -59 -2 -67 -13 -80 -5 -7 -7 -21 -3 -30 12 -28 13 -87 2 -95 -7 -4 -7 -11
1 -20 7 -9 8 -18 2 -24 -6 -6 -4 -20 5 -37 7 -15 10 -27 6 -27 -5 0 -7 -24 -4
-52 3 -29 6 -81 7 -115 0 -34 4 -65 9 -69 10 -10 9 -56 -3 -74 -6 -9 -5 -17 2
-21 13 -8 19 -137 7 -145 -10 -6 1 -44 12 -44 5 0 9 -4 9 -10 0 -5 -7 -10 -15
-10 -20 0 -19 -19 1 -27 11 -4 12 -8 4 -13 -7 -4 -13 -32 -13 -62 -1 -30 -7
-61 -12 -69 -6 -8 -9 -30 -8 -49 2 -19 4 -125 6 -235 1 -110 6 -206 11 -214 6
-10 6 -12 -2 -7 -16 10 -16 -36 1 -53 10 -11 10 -14 0 -18 -16 -6 -17 -39 -2
-49 8 -5 6 -10 -5 -16 -12 -7 -15 -16 -10 -31 4 -12 8 -46 10 -77 2 -30 4 -59
5 -65 1 -5 -2 -25 -6 -42 l-7 -33 716 0 716 0 0 24 c0 14 -7 78 -15 143 -9 65
-20 161 -26 213 -5 52 -13 127 -18 165 -25 196 -119 1030 -128 1130 -8 98 -53
531 -58 560 -2 17 -12 147 -20 290 -9 143 -19 296 -23 340 -9 99 -5 135 14
135 9 0 14 11 14 33 0 41 -29 129 -40 122 -10 -6 -15 43 -29 275 -6 96 -15
200 -20 230 -5 30 -15 109 -21 175 -19 186 -58 363 -133 610 -33 105 -61 180
-74 197 -5 7 -22 38 -37 68 -22 44 -26 63 -21 97 3 24 9 43 13 43 11 0 62 85
62 104 0 9 7 16 16 16 13 0 15 7 10 33 -6 30 -2 36 38 70 25 20 48 37 51 37 4
0 14 9 24 21 10 13 30 22 51 23 23 1 36 7 38 18 6 29 40 9 46 -28 4 -18 12
-36 18 -40 7 -4 8 -3 4 4 -4 7 -1 12 8 12 27 0 64 22 69 40 5 20 1 27 -31 55
-20 16 -25 17 -32 5 -8 -12 -10 -10 -10 9 0 16 -4 21 -15 17 -8 -3 -15 -1 -15
4 0 6 5 10 11 10 6 0 -3 12 -20 26 l-31 26 -36 -28 c-20 -16 -44 -34 -54 -39
-10 -6 -24 -16 -31 -22 -8 -5 -26 -13 -41 -17 -16 -3 -28 -10 -28 -14 0 -5 -7
-17 -15 -28 -14 -18 -14 -17 -4 11 23 66 62 145 71 145 6 0 7 -7 4 -16 -3 -9
-2 -12 4 -9 6 4 10 12 9 18 -4 24 12 45 31 40 70 -19 -30 95 -145 164 -106 64
-239 104 -275 84z m-433 -1153 c-3 -8 -6 -5 -6 6 -1 11 2 17 5 13 3 -3 4 -12
1 -19z"/>
<path d="M3745 5170 c-3 -5 -1 -10 4 -10 6 0 11 5 11 10 0 6 -2 10 -4 10 -3 0
-8 -4 -11 -10z"/>
<path d="M5316 5125 c-3 -9 0 -15 9 -15 16 0 20 16 6 24 -5 3 -11 -1 -15 -9z"/>
<path d="M4188 4943 c7 -3 16 -2 19 1 4 3 -2 6 -13 5 -11 0 -14 -3 -6 -6z"/>
<path d="M7840 3940 c0 -5 4 -10 9 -10 6 0 13 5 16 10 3 6 -1 10 -9 10 -9 0
-16 -4 -16 -10z"/>
<path d="M7911 3854 c0 -11 3 -14 6 -6 3 7 2 16 -1 19 -3 4 -6 -2 -5 -13z"/>
<path d="M7832 3738 c-7 -7 -12 -24 -12 -38 0 -29 -16 -51 -34 -44 -6 2 -20
-15 -30 -39 -10 -23 -26 -50 -34 -59 -8 -10 -12 -18 -8 -18 4 0 0 -7 -8 -16
-9 -8 -16 -22 -16 -30 0 -8 -4 -14 -10 -14 -5 0 -10 -7 -10 -15 0 -9 -13 -28
-29 -44 -16 -16 -31 -35 -34 -42 -2 -8 -3 -2 -1 13 3 28 -10 46 -21 28 -13
-21 -26 2 -19 33 6 28 5 30 -9 19 -35 -29 -44 -179 -22 -347 12 -86 1 -245
-17 -245 -5 0 -6 -5 -3 -10 3 -6 -3 -24 -15 -40 -12 -17 -17 -30 -11 -30 22 0
10 -20 -11 -21 -13 0 -17 -3 -10 -6 18 -7 15 -50 -6 -71 -25 -25 -33 -50 -19
-55 9 -3 9 -8 0 -18 -11 -11 -17 -9 -34 10 -22 24 -49 25 -57 2 -3 -8 0 -11 7
-7 16 10 53 -3 45 -16 -4 -6 -10 -5 -15 3 -6 9 -12 10 -16 4 -5 -5 -17 -10
-28 -10 -11 0 -21 -8 -23 -18 -3 -16 1 -18 32 -14 20 3 43 11 52 18 12 10 18
9 31 -4 15 -15 15 -18 1 -34 -24 -28 -108 -199 -130 -267 -48 -150 -96 -357
-103 -446 -4 -52 -13 -111 -20 -130 -8 -19 -19 -59 -25 -87 -11 -48 -10 -55 9
-79 25 -32 19 -45 -9 -19 -19 18 -20 17 -20 -1 0 -10 13 -28 27 -38 23 -17 26
-17 20 -3 -13 35 9 15 25 -22 13 -31 22 -39 41 -37 20 1 24 6 23 34 -1 18 -8
37 -16 43 -12 8 -10 9 6 4 21 -5 22 -3 18 67 -2 47 0 66 5 53 5 -12 15 -26 24
-33 17 -15 47 -6 47 14 0 8 -6 11 -15 8 -8 -4 -15 -1 -15 5 0 6 7 11 15 11 8
0 15 4 15 9 0 5 8 7 19 4 10 -3 22 0 25 6 4 6 -4 13 -19 17 -14 3 -25 11 -25
16 0 6 7 7 16 4 13 -5 15 0 11 33 -3 30 0 40 12 44 13 3 16 18 16 80 0 43 3
77 7 77 3 0 4 9 1 20 -4 14 0 20 11 20 13 0 15 4 8 18 -12 23 -22 102 -13 102
4 0 5 16 3 35 -3 21 0 35 7 35 6 0 8 -7 4 -16 -5 -14 -3 -14 16 -2 19 11 19
14 6 24 -15 12 -39 74 -28 74 3 0 16 -12 29 -27 13 -15 27 -23 31 -19 4 5 2
11 -4 13 -7 3 -13 13 -13 23 0 10 -4 22 -10 25 -18 11 -10 26 10 20 15 -5 20
-2 20 13 0 11 -6 23 -12 25 -8 3 -6 6 5 6 14 1 16 7 12 31 -3 19 -1 30 7 30 6
0 9 3 5 6 -3 3 5 18 19 32 15 17 22 33 18 46 -3 10 -2 16 3 13 4 -3 13 6 20
19 9 20 8 26 -5 34 -15 8 -14 9 5 10 24 0 40 16 21 22 -7 3 -4 12 11 27 16 16
22 31 19 52 -3 19 0 29 9 29 7 0 15 17 19 40 4 22 11 43 15 46 5 3 9 14 9 25
0 10 5 19 10 19 6 0 10 6 10 13 0 7 16 42 35 77 59 110 124 247 131 277 4 15
11 34 17 41 17 21 15 80 -3 97 -14 13 -19 13 -36 0 -27 -21 -48 -18 -59 8 -7
16 -17 21 -34 19 -18 -3 -22 0 -18 12 3 8 1 18 -4 22 -6 3 -8 17 -5 30 5 18 3
22 -9 18 -8 -4 -15 -1 -15 4 0 6 12 12 26 14 23 2 29 10 38 49 7 25 10 51 8
57 -2 7 6 16 19 20 15 6 18 11 11 16 -17 10 -15 26 3 20 10 -4 15 0 15 16 0
12 4 29 10 39 13 26 29 101 21 101 -4 0 -12 -5 -19 -12z m-243 -405 c-7 -10
-15 -20 -16 -22 -2 -2 -3 5 -3 17 0 14 6 22 16 22 14 0 15 -3 3 -17z m-39 -44
c0 -5 -4 -9 -10 -9 -5 0 -10 7 -10 16 0 8 5 12 10 9 6 -3 10 -10 10 -16z"/>
<path d="M7765 3720 c4 -6 11 -8 16 -5 14 9 11 15 -7 15 -8 0 -12 -5 -9 -10z"/>
<path d="M7250 3631 c0 -5 7 -11 15 -15 9 -3 15 0 15 9 0 8 -7 15 -15 15 -8 0
-15 -4 -15 -9z"/>
<path d="M7232 3579 c2 -7 10 -15 17 -17 8 -3 12 1 9 9 -2 7 -10 15 -17 17 -8
3 -12 -1 -9 -9z"/>
<path d="M7235 3500 c3 -5 8 -10 11 -10 2 0 4 5 4 10 0 6 -5 10 -11 10 -5 0
-7 -4 -4 -10z"/>
<path d="M7270 3460 c0 -19 3 -21 12 -12 9 9 9 15 0 24 -9 9 -12 7 -12 -12z"/>
<path d="M7238 3414 c2 -13 8 -21 13 -18 14 8 11 31 -4 37 -10 4 -13 -2 -9
-19z"/>
<path d="M7880 3350 c0 -5 5 -10 11 -10 5 0 7 5 4 10 -3 6 -8 10 -11 10 -2 0
-4 -4 -4 -10z"/>
<path d="M8037 3233 c-4 -3 -7 -14 -7 -23 0 -8 -8 -31 -18 -51 -10 -19 -26
-57 -36 -84 -10 -28 -33 -82 -53 -122 -19 -40 -32 -77 -28 -83 3 -5 1 -10 -4
-10 -6 0 -11 -10 -11 -22 0 -13 -7 -32 -15 -42 -8 -11 -15 -30 -15 -42 0 -13
-4 -25 -9 -29 -5 -3 -21 -41 -36 -85 -15 -44 -31 -82 -36 -85 -5 -4 -9 -19 -9
-36 0 -16 -4 -37 -9 -47 -18 -33 -43 -133 -37 -147 3 -9 0 -15 -8 -15 -10 0
-15 -17 -18 -56 -1 -31 0 -58 5 -61 4 -2 7 -13 7 -24 0 -10 4 -19 9 -19 11 0
21 25 21 51 0 10 7 19 15 19 8 0 15 -7 15 -17 0 -31 11 -6 16 38 3 24 8 46 12
49 4 3 20 19 35 36 26 29 27 33 12 48 -9 9 -12 16 -7 16 10 0 24 33 27 65 3
29 35 95 47 95 5 0 6 9 3 20 -3 11 -2 20 4 20 5 0 13 9 16 21 4 13 12 18 22
15 23 -9 36 4 18 18 -15 11 -14 14 4 37 11 15 18 28 16 31 -3 3 2 5 10 5 8 0
15 -6 15 -14 0 -7 -4 -13 -10 -13 -5 0 -10 -9 -10 -20 0 -11 4 -20 9 -20 5 0
12 -10 14 -22 4 -20 4 -19 6 5 0 15 -3 27 -9 27 -5 0 -10 5 -10 11 0 5 4 8 9
4 5 -3 11 3 13 12 3 10 5 -79 6 -197 1 -118 6 -244 11 -280 5 -43 9 121 10
483 0 301 0 547 -2 547 -2 0 -7 -3 -10 -7z m-290 -985 c-3 -8 -6 -5 -6 6 -1
11 2 17 5 13 3 -3 4 -12 1 -19z"/>
<path d="M1409 3199 c-1 -8 -1 -18 0 -23 1 -6 4 -33 6 -60 6 -88 138 -428 242
-627 22 -41 43 -86 48 -100 7 -22 8 -22 12 11 2 19 11 85 20 145 8 61 15 118
15 128 -1 10 -16 55 -36 100 -19 45 -37 98 -41 117 -12 61 -54 126 -96 149
l-39 22 0 -34 c0 -19 9 -46 20 -60 12 -15 22 -30 23 -34 1 -4 5 -7 9 -5 5 1 8
-10 8 -24 0 -14 4 -23 9 -19 5 3 12 1 16 -5 3 -5 0 -10 -8 -10 -16 0 -106 84
-124 116 -6 11 -17 56 -23 100 -16 103 -18 116 -25 122 -3 3 -5 0 -5 -8 0 -10
-3 -10 -15 0 -12 10 -15 10 -16 -1z"/>
<path d="M7267 2867 c-9 -65 -3 -82 19 -53 8 11 10 22 5 26 -5 3 -11 23 -13
45 -3 38 -4 37 -11 -18z"/>
<path d="M6725 2770 c-3 -5 -15 -10 -26 -10 -23 0 -62 -37 -54 -50 4 -6 -1
-10 -9 -10 -11 0 -16 -9 -16 -28 0 -15 -5 -33 -10 -38 -14 -14 -2 -44 16 -44
8 0 14 9 14 20 0 11 5 20 10 20 6 0 10 7 10 15 0 23 26 18 27 -5 1 -13 -4 -20
-15 -20 -13 0 -14 -2 -4 -9 17 -10 14 -22 -7 -38 -13 -10 -2 -12 61 -13 42 0
80 5 83 10 3 6 1 10 -6 10 -10 0 -10 3 -1 12 7 7 12 17 12 23 0 7 -3 7 -8 -1
-4 -6 -17 -7 -32 -3 -22 6 -23 7 -4 8 12 1 26 7 32 14 9 10 3 12 -26 9 -31 -2
-34 -1 -18 9 15 9 16 13 5 20 -10 6 -11 9 -1 9 22 0 13 20 -10 21 -22 1 -22 1
2 8 24 7 42 41 21 41 -6 0 -11 7 -11 15 0 17 -25 20 -35 5z m-5 -110 c0 -5 -2
-10 -4 -10 -3 0 -8 5 -11 10 -3 6 -1 10 4 10 6 0 11 -4 11 -10z"/>
<path d="M6545 2700 c-3 -5 -1 -10 4 -10 6 0 11 5 11 10 0 6 -2 10 -4 10 -3 0
-8 -4 -11 -10z"/>
<path d="M6518 2653 c7 -3 16 -2 19 1 4 3 -2 6 -13 5 -11 0 -14 -3 -6 -6z"/>
<path d="M6480 2629 c0 -5 5 -7 10 -4 6 3 10 8 10 11 0 2 -4 4 -10 4 -5 0 -10
-5 -10 -11z"/>
<path d="M6977 2571 c-6 -23 10 -31 63 -31 42 0 63 17 33 26 -10 3 -26 10 -35
15 -29 15 -55 10 -61 -10z"/>
<path d="M6580 2568 c0 -5 11 -8 25 -8 14 0 25 4 25 9 0 5 -11 8 -25 7 -14 0
-25 -4 -25 -8z"/>
<path d="M7190 2570 c-13 -8 -12 -10 3 -10 9 0 17 5 17 10 0 12 -1 12 -20 0z"/>
<path d="M7135 2560 c3 -5 12 -7 20 -3 21 7 19 13 -6 13 -11 0 -18 -4 -14 -10z"/>
<path d="M1562 2153 c-10 -4 -10 -8 -1 -20 10 -11 10 -16 1 -22 -7 -4 -10 -15
-7 -23 4 -9 2 -19 -4 -23 -6 -3 -11 -22 -11 -41 0 -28 4 -34 23 -35 14 0 17
-2 7 -6 -8 -3 -22 -15 -32 -26 -15 -20 -15 -22 0 -34 10 -7 13 -13 7 -13 -12
0 -13 -70 -1 -88 4 -7 5 -16 2 -19 -3 -4 -6 -1 -6 5 0 7 -4 12 -10 12 -15 0
-12 -19 6 -37 13 -14 15 -29 8 -92 -4 -42 -7 -84 -8 -93 0 -9 -4 -14 -8 -12
-13 8 -9 -51 4 -64 9 -9 8 -12 -5 -12 -21 0 -22 -19 -2 -26 18 -7 20 -31 3
-37 -10 -4 -10 -7 0 -18 6 -7 12 -20 12 -28 0 -8 18 -41 40 -72 22 -32 40 -61
40 -67 0 -5 9 -21 20 -35 11 -14 22 -40 24 -59 3 -18 8 -47 12 -62 5 -21 4
-27 -5 -22 -11 7 -15 -4 -11 -38 1 -14 -3 -18 -17 -14 -18 5 -19 -2 -18 -121
0 -95 4 -135 16 -161 9 -19 22 -51 29 -70 22 -59 72 -165 81 -170 5 -3 10 -15
12 -25 2 -11 12 -38 22 -60 9 -22 21 -50 26 -62 5 -13 13 -23 19 -23 5 0 10
-11 10 -24 0 -13 3 -26 8 -28 19 -8 51 -69 57 -109 11 -83 12 -168 1 -173 -6
-2 2 -5 18 -5 28 -1 28 0 21 36 -4 21 -9 118 -11 216 -2 98 -5 182 -7 185 -2
4 -2 32 -1 62 7 139 5 202 -7 216 -8 9 -9 18 -3 22 14 11 12 51 -3 56 -9 4
-11 1 -7 -6 4 -7 3 -8 -4 -4 -7 4 -12 16 -12 27 0 10 -5 19 -11 19 -6 0 -9 7
-6 15 4 8 2 17 -3 20 -5 3 -11 -3 -13 -12 -3 -10 -3 -1 -2 19 2 21 0 40 -5 43
-4 3 -8 53 -9 112 -1 60 -3 119 -6 133 -3 14 -8 41 -11 60 -4 19 -9 44 -11 55
-2 11 -6 79 -9 150 -7 193 -42 410 -75 465 -5 8 -16 30 -25 49 -8 18 -23 35
-33 38 -13 3 -17 12 -15 31 2 15 0 32 -4 37 -12 17 -52 36 -52 25 0 -5 -8 -10
-17 -10 -12 0 -14 3 -6 8 18 11 25 68 10 79 -6 6 -18 8 -25 6z m23 -133 c3 -5
-1 -10 -9 -10 -9 0 -16 5 -16 10 0 6 4 10 9 10 6 0 13 -4 16 -10z"/>
<path d="M7203 1995 c-7 -8 -9 -16 -4 -19 5 -3 12 1 15 10 8 22 4 25 -11 9z"/>
<path d="M1501 1574 c0 -11 3 -14 6 -6 3 7 2 16 -1 19 -3 4 -6 -2 -5 -13z"/>
<path d="M7290 1579 c0 -5 5 -7 10 -4 6 3 10 8 10 11 0 2 -4 4 -10 4 -5 0 -10
-5 -10 -11z"/>
<path d="M7348 1579 c-21 -12 -24 -29 -4 -29 7 0 16 9 19 20 3 11 4 20 4 20
-1 0 -10 -5 -19 -11z"/>
<path d="M7396 1561 c-4 -7 -5 -15 -2 -18 9 -9 19 4 14 18 -4 11 -6 11 -12 0z"/>
<path d="M7388 1513 c7 -3 16 -2 19 1 4 3 -2 6 -13 5 -11 0 -14 -3 -6 -6z"/>
<path d="M7247 1423 c-13 -13 -7 -21 13 -16 11 3 17 9 14 14 -6 11 -18 12 -27
2z"/>
<path d="M7117 1191 c-4 -17 1 -29 20 -47 29 -26 44 -25 22 2 -8 9 -19 29 -25
43 l-10 26 -7 -24z"/>
<path d="M7069 893 c-2 -58 3 -115 12 -146 14 -43 50 -179 53 -196 4 -20 36
-41 62 -41 12 0 41 9 65 20 54 24 165 27 230 6 24 -8 66 -17 92 -19 43 -4 48
-2 44 14 -3 11 -2 17 3 14 9 -6 20 18 20 45 0 32 -79 157 -141 222 -33 34 -41
38 -88 38 -28 0 -62 7 -74 15 -12 8 -31 14 -42 14 -42 0 -150 14 -160 21 -5 4
-25 11 -42 15 -31 6 -33 5 -34 -22z"/>
<path d="M7016 808 c-4 -18 -2 -34 4 -38 6 -4 8 -14 4 -23 -3 -10 -1 -17 6
-17 6 0 9 -4 6 -9 -7 -10 19 -23 28 -14 11 12 6 44 -6 37 -8 -5 -9 -2 -5 9 3
10 4 24 0 33 -5 13 -8 13 -15 2 -6 -8 -7 -2 -3 20 4 18 2 32 -3 32 -5 0 -12
-14 -16 -32z"/>
<path d="M6931 744 c0 -11 3 -14 6 -6 3 7 2 16 -1 19 -3 4 -6 -2 -5 -13z"/>
<path d="M1500 233 c32 -12 39 -43 11 -43 -30 0 -37 -22 -13 -38 13 -8 22 -25
22 -39 0 -19 4 -24 23 -21 17 2 23 -3 25 -20 3 -20 8 -23 28 -18 14 4 24 2 24
-4 0 -5 -4 -10 -10 -10 -5 0 -10 -9 -10 -20 0 -19 7 -20 140 -20 155 0 160 3
92 56 -20 16 -52 43 -72 59 -19 17 -44 35 -55 42 -79 48 -133 73 -148 69 -9
-2 -15 0 -11 5 3 5 -10 9 -28 8 -18 0 -26 -3 -18 -6z"/>
<path d="M1478 123 c6 -2 18 -2 25 0 6 3 1 5 -13 5 -14 0 -19 -2 -12 -5z"/>
</g>
</svg>
